<?xml version="1.0" encoding="UTF-8"?>
<svg version="1.1" viewBox="0 0 28.747 28.747" xml:space="preserve" xmlns="http://www.w3.org/2000/svg" xmlns:xlink="http://www.w3.org/1999/xlink"><defs><filter id="filter6206-7" x="-.072" y="-.072" width="1.144" height="1.144" color-interpolation-filters="sRGB"><feGaussianBlur stdDeviation="0.658125"/></filter></defs><g transform="translate(0 -1093.8)"><path transform="matrix(1.0781 0 0 1.0641 -.093733 2.7509)" d="m4.4177 1028.2v1.6051h-1.6052v18.192h1.6052v2.1402h18.192v-2.1402h2.1402v-18.192h-2.1402v-1.6051z" fill="#263238" filter="url(#filter6206-7)" opacity=".2"/><rect x="2.9987" y="1096.8" width="22.749" height="22.749" rx="1.1973" ry="1.1974" fill="#4caf50"/><g transform="translate(-22.32 1056.5)"><path d="m0 0h51.2v51.2h-51.2z" fill="none" stroke-width="1.0667"/><g transform="matrix(.33601 0 0 .33601 1.5296 73.043)"><path d="m0 0h51.2v51.2h-51.2z" fill="none" stroke-width="1.0667"/></g><g transform="matrix(.37187 0 0 .37187 38.802 63.239)"><path d="m0 0h51.2v51.2h-51.2z" fill="none" stroke-width="1.0667"/><g transform="matrix(2.6891 0 0 2.6891 -82.906 -48.45)"><path d="m0 0h51.2v51.2h-51.2z" fill="none" stroke-width="1.0667"/></g></g></g><path d="m4.1958 1096.8c-0.66332 0-1.1979 0.5346-1.1979 1.1979v0.3334c0-0.6634 0.53459-1.1979 1.1979-1.1979h20.354c0.66332 0 1.1979 0.5345 1.1979 1.1979v-0.3334c0-0.6633-0.5346-1.1979-1.1979-1.1979z" fill="#fff" opacity=".2"/><rect x="128" y="546.52" width="42.667" height="42.667" fill="none" stroke-width="1.0667"/><rect x="128" y="631.85" width="42.667" height="42.667" fill="none" stroke-width="1.0667"/><rect x="128" y="674.52" width="42.667" height="42.667" fill="none" stroke-width="1.0667"/><rect x="128" y="589.19" width="42.667" height="42.667" fill="none" stroke-width="1.0667"/><rect x="128" y="717.19" width="42.667" height="42.667" fill="none" stroke-width="1.0667"/><rect x="213.33" y="546.52" width="42.667" height="42.667" fill="none" stroke-width="1.0667"/><rect x="213.33" y="631.85" width="42.667" height="42.667" fill="none" stroke-width="1.0667"/><rect x="213.33" y="674.52" width="42.667" height="42.667" fill="none" stroke-width="1.0667"/><rect x="213.33" y="589.19" width="42.667" height="42.667" fill="none" stroke-width="1.0667"/><rect x="213.33" y="717.19" width="42.667" height="42.667" fill="none" stroke-width="1.0667"/><rect x="298.67" y="546.52" width="42.667" height="42.667" fill="none" stroke-width="1.0667"/><rect x="298.67" y="631.85" width="42.667" height="42.667" fill="none" stroke-width="1.0667"/><rect x="298.67" y="674.52" width="42.667" height="42.667" fill="none" stroke-width="1.0667"/><rect x="298.67" y="589.19" width="42.667" height="42.667" fill="none" stroke-width="1.0667"/><rect x="298.67" y="717.19" width="42.667" height="42.667" fill="none" stroke-width="1.0667"/><rect x="170.67" y="546.52" width="42.667" height="42.667" fill="none" stroke-width="1.0667"/><rect x="170.67" y="631.85" width="42.667" height="42.667" fill="none" stroke-width="1.0667"/><rect x="170.67" y="674.52" width="42.667" height="42.667" fill="none" stroke-width="1.0667"/><rect x="170.67" y="589.19" width="42.667" height="42.667" fill="none" stroke-width="1.0667"/><rect x="170.67" y="717.19" width="42.667" height="42.667" fill="none" stroke-width="1.0667"/><rect x="256" y="546.52" width="42.667" height="42.667" fill="none" stroke-width="1.0667"/><rect x="256" y="631.85" width="42.667" height="42.667" fill="none" stroke-width="1.0667"/><rect x="256" y="674.52" width="42.667" height="42.667" fill="none" stroke-width="1.0667"/><rect x="256" y="589.19" width="42.667" height="42.667" fill="none" stroke-width="1.0667"/><rect x="256" y="717.19" width="42.667" height="42.667" fill="none" stroke-width="1.0667"/><rect x="128" y="759.85" width="42.667" height="42.667" fill="none" stroke-width="1.0667"/><rect x="213.33" y="759.85" width="42.667" height="42.667" fill="none" stroke-width="1.0667"/><rect x="298.67" y="759.85" width="42.667" height="42.667" fill="none" stroke-width="1.0667"/><rect x="170.67" y="759.85" width="42.667" height="42.667" fill="none" stroke-width="1.0667"/><rect x="256" y="759.85" width="42.667" height="42.667" fill="none" stroke-width="1.0667"/><rect x="341.33" y="589.19" width="42.667" height="42.667" fill="none" stroke-width="1.0667"/><rect x="341.33" y="631.85" width="42.667" height="42.667" fill="none" stroke-width="1.0667"/><rect x="341.33" y="717.19" width="42.667" height="42.667" fill="none" stroke-width="1.0667"/><rect x="341.33" y="546.52" width="42.667" height="42.667" fill="none" stroke-width="1.0667"/><rect x="341.33" y="674.52" width="42.667" height="42.667" fill="none" stroke-width="1.0667"/><rect x="341.33" y="759.85" width="42.667" height="42.667" fill="none" stroke-width="1.0667"/><rect x="160" y="578.52" width="192" height="192" fill="none" stroke-width="1.0667"/><g transform="matrix(.37344 0 0 .37344 4.7333 1097.4)"><path d="m0 0h51.2v51.2h-51.2z" fill="none" stroke-width="1.0667"/></g><g transform="matrix(.36471 0 0 .36471 5.1356 1097.4)"><path d="m0 0h51.2v51.2h-51.2z" fill="none" stroke-width="1.0667"/></g><g transform="matrix(.41585 0 0 .41585 84.325 1055.9)"><g transform="matrix(.062269 0 0 .062269 -28.238 185.29)"><g transform="matrix(38.618 0 0 38.618 14724 -13542)"><g transform="matrix(.71436 0 0 .71436 -400.52 188.34)"><path d="m1293.2-120.67c-181.75 0.2763-511.18 0.13525-699.05 0.13998-2.3216 10.413-3.593 21.251-3.593 32.384v114c207.65 0.73695 494.72 0.38136 706.23 0.3733v-114.37c0-11.18-1.2522-22.07-3.593-32.523zm-458.69 295.56c-78.385-4e-3 -158.85 0.17892-243.95 0.55995v138.63c286.34-0.39317 421.73-0.13827 706.23-0.32664v-137.75c-163.2-0.53005-311.22-1.1113-462.28-1.1199z" opacity="0" stroke-width="1.4932"/></g></g></g></g><path d="m24.549 1119.5c0.66325 0 1.1979-0.5346 1.1979-1.1979v-0.3333c0 0.6632-0.53461 1.1978-1.1979 1.1978h-20.354c-0.66325 0-1.1979-0.5346-1.1979-1.1978v0.3333c0 0.6633 0.53461 1.1979 1.1979 1.1979z" fill="#263238" opacity=".2"/></g><g><g transform="matrix(1.0435 0 0 1.0435 -.61014 -.8213)" fill="#fff" stroke-linecap="round" stroke-linejoin="round" stroke-miterlimit="3" stroke-width=".5"><path d="m13 8.2812h2.6543l3.4316 9.4629-3.0156-1.4766-0.07812 0.34766c-0.07961 0.34779-0.26602 0.67058-0.52734 0.91406-0.26155 0.24369-0.59632 0.40602-0.94922 0.46094l-0.048832 0.009766c-0.33544 0.0205-0.7926-0.02955-1.1191-0.24219l-0.05469-0.03516-0.83203 0.64062-0.66211 2.459h-3.2871l1.8789-5.207h5.1152l-1.1582-4.3223-0.65039 2.4238-1.9297-2.0156zm6.2402 9.8984 0.9668 2.6641h-3.3027l-0.08984-0.33008c0.13788-0.06566 0.27447-0.13538 0.40625-0.21289 0.85169-0.50093 1.5593-1.2462 2.0195-2.1211z" stop-color="#000000" style="-inkscape-stroke:none;font-variation-settings:normal"/><path d="m16.268 16.68c-0.09214 0.40254-0.30724 0.77513-0.60938 1.0566-0.30214 0.28151-0.68961 0.47167-1.0977 0.53516-0.41909 0.06521-0.85531-0.0079-1.2363-0.19336l-0.63672 0.5293-0.43164 1.6113c0.65321 0.32447 1.3743 0.51126 2.1035 0.5332 0.94686 0.02849 1.9003-0.21506 2.7168-0.69531s1.4944-1.1957 1.9297-2.0371z"/><path d="m12.725 8.2832c-0.51091 0.18697-0.99316 0.45302-1.418 0.79297-0.79058 0.63266-1.3822 1.5089-1.6738 2.4785l0.011719 5.293 0.54687-1.5156h2.5098l-0.0039-2.252-1.2559-1.3105z"/><path d="m15.9 8.2797 1.2136 3.1968 1.8535-0.76367c-0.43813-0.89251-1.1458-1.4991-2.0078-1.9945-0.33505-0.19257-0.68906-0.32805-1.0593-0.43866z"/></g></g><g display="none" fill="none"><rect transform="rotate(90)" x="7.8232" y="-20.923" width="13.1" height="13.1" display="inline" stroke="#000" stroke-width=".070382"/><rect x="7.2241" y="8.6528" width="14.298" height="11.441" stroke="#5261ff" stroke-linecap="round" stroke-linejoin="round" stroke-width=".06959"/><rect transform="rotate(90)" x="7.2241" y="-20.094" width="14.298" height="11.441" display="inline" stroke="#0f0" stroke-linecap="round" stroke-linejoin="round" stroke-width=".06959"/></g></svg>
