<?xml version="1.0" encoding="UTF-8"?>
<svg version="1.1" viewBox="0 0 28.747 28.747" xml:space="preserve" xmlns="http://www.w3.org/2000/svg"><defs><filter id="filter6206-7" x="-.072" y="-.072" width="1.144" height="1.144" color-interpolation-filters="sRGB"><feGaussianBlur stdDeviation="0.658125"/></filter></defs><g transform="translate(0 -1093.8)"><path transform="matrix(1.0781 0 0 1.0641 -.093733 2.7509)" d="m4.4177 1028.2v1.6051h-1.6052v18.192h1.6052v2.1402h18.192v-2.1402h2.1402v-18.192h-2.1402v-1.6051z" fill="#1a237e" filter="url(#filter6206-7)" opacity=".2"/><rect x="2.9987" y="1096.8" width="22.749" height="22.749" rx="1.1973" ry="1.1974" fill="#2196f3"/><g transform="translate(-22.32 1056.5)"><path d="m0 0h51.2v51.2h-51.2z" fill="none" stroke-width="1.0667"/><g transform="matrix(.33601 0 0 .33601 1.5296 73.043)"><path d="m0 0h51.2v51.2h-51.2z" fill="none" stroke-width="1.0667"/></g><g transform="matrix(.37187 0 0 .37187 38.802 63.239)"><path d="m0 0h51.2v51.2h-51.2z" fill="none" stroke-width="1.0667"/><g transform="matrix(2.6891 0 0 2.6891 -82.906 -48.45)"><path d="m0 0h51.2v51.2h-51.2z" fill="none" stroke-width="1.0667"/></g></g></g><path d="m4.1958 1096.8c-0.66332 0-1.1979 0.5346-1.1979 1.1979v0.3334c0-0.6634 0.53459-1.1979 1.1979-1.1979h20.354c0.66332 0 1.1979 0.5345 1.1979 1.1979v-0.3334c0-0.6633-0.5346-1.1979-1.1979-1.1979z" fill="#fff" opacity=".2"/><rect x="128" y="546.52" width="42.667" height="42.667" fill="none" stroke-width="1.0667"/><rect x="128" y="631.85" width="42.667" height="42.667" fill="none" stroke-width="1.0667"/><rect x="128" y="674.52" width="42.667" height="42.667" fill="none" stroke-width="1.0667"/><rect x="128" y="589.19" width="42.667" height="42.667" fill="none" stroke-width="1.0667"/><rect x="128" y="717.19" width="42.667" height="42.667" fill="none" stroke-width="1.0667"/><rect x="213.33" y="546.52" width="42.667" height="42.667" fill="none" stroke-width="1.0667"/><rect x="213.33" y="631.85" width="42.667" height="42.667" fill="none" stroke-width="1.0667"/><rect x="213.33" y="674.52" width="42.667" height="42.667" fill="none" stroke-width="1.0667"/><rect x="213.33" y="589.19" width="42.667" height="42.667" fill="none" stroke-width="1.0667"/><rect x="213.33" y="717.19" width="42.667" height="42.667" fill="none" stroke-width="1.0667"/><rect x="298.67" y="546.52" width="42.667" height="42.667" fill="none" stroke-width="1.0667"/><rect x="298.67" y="631.85" width="42.667" height="42.667" fill="none" stroke-width="1.0667"/><rect x="298.67" y="674.52" width="42.667" height="42.667" fill="none" stroke-width="1.0667"/><rect x="298.67" y="589.19" width="42.667" height="42.667" fill="none" stroke-width="1.0667"/><rect x="298.67" y="717.19" width="42.667" height="42.667" fill="none" stroke-width="1.0667"/><rect x="170.67" y="546.52" width="42.667" height="42.667" fill="none" stroke-width="1.0667"/><rect x="170.67" y="631.85" width="42.667" height="42.667" fill="none" stroke-width="1.0667"/><rect x="170.67" y="674.52" width="42.667" height="42.667" fill="none" stroke-width="1.0667"/><rect x="170.67" y="589.19" width="42.667" height="42.667" fill="none" stroke-width="1.0667"/><rect x="170.67" y="717.19" width="42.667" height="42.667" fill="none" stroke-width="1.0667"/><rect x="256" y="546.52" width="42.667" height="42.667" fill="none" stroke-width="1.0667"/><rect x="256" y="631.85" width="42.667" height="42.667" fill="none" stroke-width="1.0667"/><rect x="256" y="674.52" width="42.667" height="42.667" fill="none" stroke-width="1.0667"/><rect x="256" y="589.19" width="42.667" height="42.667" fill="none" stroke-width="1.0667"/><rect x="256" y="717.19" width="42.667" height="42.667" fill="none" stroke-width="1.0667"/><rect x="128" y="759.85" width="42.667" height="42.667" fill="none" stroke-width="1.0667"/><rect x="213.33" y="759.85" width="42.667" height="42.667" fill="none" stroke-width="1.0667"/><rect x="298.67" y="759.85" width="42.667" height="42.667" fill="none" stroke-width="1.0667"/><rect x="170.67" y="759.85" width="42.667" height="42.667" fill="none" stroke-width="1.0667"/><rect x="256" y="759.85" width="42.667" height="42.667" fill="none" stroke-width="1.0667"/><rect x="341.33" y="589.19" width="42.667" height="42.667" fill="none" stroke-width="1.0667"/><rect x="341.33" y="631.85" width="42.667" height="42.667" fill="none" stroke-width="1.0667"/><rect x="341.33" y="717.19" width="42.667" height="42.667" fill="none" stroke-width="1.0667"/><rect x="341.33" y="546.52" width="42.667" height="42.667" fill="none" stroke-width="1.0667"/><rect x="341.33" y="674.52" width="42.667" height="42.667" fill="none" stroke-width="1.0667"/><rect x="341.33" y="759.85" width="42.667" height="42.667" fill="none" stroke-width="1.0667"/><rect x="160" y="578.52" width="192" height="192" fill="none" stroke-width="1.0667"/><g transform="matrix(.37344 0 0 .37344 4.7333 1097.4)"><path d="m0 0h51.2v51.2h-51.2z" fill="none" stroke-width="1.0667"/></g><g transform="matrix(.36471 0 0 .36471 5.1356 1097.4)"><path d="m0 0h51.2v51.2h-51.2z" fill="none" stroke-width="1.0667"/></g><g transform="matrix(.41585 0 0 .41585 84.325 1055.9)"><g transform="matrix(.062269 0 0 .062269 -28.238 185.29)"><g transform="matrix(38.618 0 0 38.618 14724 -13542)"><g transform="matrix(.71436 0 0 .71436 -400.52 188.34)"><path d="m1293.2-120.67c-181.75 0.2763-511.18 0.13525-699.05 0.13998-2.3216 10.413-3.593 21.251-3.593 32.384v114c207.65 0.73695 494.72 0.38136 706.23 0.3733v-114.37c0-11.18-1.2522-22.07-3.593-32.523zm-458.69 295.56c-78.385-4e-3 -158.85 0.17892-243.95 0.55995v138.63c286.34-0.39317 421.73-0.13827 706.23-0.32664v-137.75c-163.2-0.53005-311.22-1.1113-462.28-1.1199z" opacity="0" stroke-width="1.4932"/></g></g></g></g><path d="m24.549 1119.5c0.66325 0 1.1979-0.5346 1.1979-1.1979v-0.3333c0 0.6632-0.53461 1.1978-1.1979 1.1978h-20.354c-0.66325 0-1.1979-0.5346-1.1979-1.1978v0.3333c0 0.6633 0.53461 1.1979 1.1979 1.1979z" fill="#1a237e" opacity=".2"/></g><g transform="matrix(.11568 0 0 .11577 7.1901 7.1611)" fill="#fff"><path d="m64.6 44.2c1.4-2.3 3.2-4.5 5.2-6.5 2.9-2.9 6.1-5.2 9.6-6.9-4.4-2.4-9.5-4-14.8-4.3z" fill="#fff" stroke-opacity=".7"/><path d="m59.599 0.19649c-7.2 0.5-13.205 3.4053-18.505 8.7053-5.9 5.9-8.7967 12.804-8.7967 21.004 0 3.6028 0.5107 6.9102 1.604 9.9875l0.05065 0.10122c0.0018 0.0049-0.0018 0.01193 0 0.01687 0.05533 0.15334 0.11061 0.30332 0.16884 0.45551 0.11486 0.30484 0.22802 0.60982 0.35457 0.91102 0.0029 0.0068 0.01398 0.0101 0.01688 0.01687 1.4425 3.4253 3.6187 6.6164 6.5004 9.4982 5.4 5.3 11.406 8.2053 18.606 8.7053z"/><path d="m94.397 32.403c-3.6 0-6.8955 0.50272-9.9955 1.6027-4 1.4-7.7085 3.8026-11.009 7.1026-5.3 5.4-8.1954 11.492-8.6954 18.592h59.399c-0.5-7.1-3.3954-13.207-8.6954-18.507-5.9-5.9-12.804-8.7896-21.004-8.7896z"/><path d="m0.098534 64.693c0.5 7.2 3.3954 13.207 8.6954 18.507 5.9 5.9 12.804 8.8065 21.004 8.8065 5.3 0 9.9997-1.2091 14.2-3.5091-0.41928 0.20964-0.84908 0.41999-1.2832 0.62422 2.8917-1.4212 5.566-3.4 8.0876-5.9216 5.3-5.3 8.1954-11.307 8.6954-18.507z"/><path d="m80.1 64.7c2.3 1.4 4.5 3.2 6.5 5.2 3 3 5.3 6.2 7 9.7 2.5-4.5 4-9.6 4.4-15h-17.9z" fill="#fff" stroke-opacity=".7"/><path d="m64.596 64.794v59.604c7.2-0.5 13.405-3.5053 18.505-8.7053 5.9-5.9 8.7967-12.788 8.7967-21.088 0-3.5913-0.54246-6.8722-1.7732-10.488-1.2308-3.6161-3.6235-7.3182-7.0235-10.718-5.3-5.2-11.405-8.1041-18.505-8.6041z"/><path d="m44.1 59.7c-2.3-1.4-4.5-3.2-6.5-5.2-2.9-2.9-5.2-6.1-6.9-9.6-2.5 4.5-4 9.5-4.4 14.9h17.8z" fill="#fff" stroke-opacity=".7"/><path d="m59.6 80.2c-1.4 2.3-3.2 4.5-5.2 6.5-3 3-6.2 5.3-9.8 7 4.5 2.5 9.6 4.1 15 4.4z" fill="#fff" stroke-opacity=".7"/></g><g display="none" fill="none"><rect transform="rotate(90)" x="7.8232" y="-20.923" width="13.1" height="13.1" display="inline" stroke="#000" stroke-width=".070382"/><rect x="7.2241" y="8.6528" width="14.298" height="11.441" stroke="#5261ff" stroke-linecap="round" stroke-linejoin="round" stroke-width=".06959"/><rect transform="rotate(90)" x="7.2241" y="-20.094" width="14.298" height="11.441" display="inline" stroke="#0f0" stroke-linecap="round" stroke-linejoin="round" stroke-width=".06959"/></g></svg>
