<?xml version="1.0" encoding="UTF-8"?>
<svg version="1.1" viewBox="0 0 28.747 28.747" xmlns="http://www.w3.org/2000/svg">
    <defs>
        <filter id="filter6206-7" x="-.072" y="-.072" width="1.144" height="1.144" color-interpolation-filters="sRGB">
            <feGaussianBlur stdDeviation="0.658125"/>
        </filter>
    </defs>
    <g transform="translate(0 -1093.8)">
        <path transform="matrix(1.0781 0 0 1.0641 -.093733 2.7509)" d="m4.4177 1028.2v1.6051h-1.6052v18.192h1.6052v2.1402h18.192v-2.1402h2.1402v-18.192h-2.1402v-1.6051z" fill="#263238" filter="url(#filter6206-7)" opacity=".2"/>
        <rect x="2.9987" y="1096.8" width="22.749" height="22.749" rx="1.1973" ry="1.1974" fill="#00bcd4"/>
        <g transform="translate(-22.32 1056.5)">
            <path d="m0 0h51.2v51.2h-51.2z" fill="none" stroke-width="1.0667"/>
            <g transform="matrix(.33601 0 0 .33601 1.5296 73.043)">
                <path d="m0 0h51.2v51.2h-51.2z" fill="none" stroke-width="1.0667"/>
            </g>
            <g transform="matrix(.37187 0 0 .37187 38.802 63.239)">
                <path d="m0 0h51.2v51.2h-51.2z" fill="none" stroke-width="1.0667"/>
                <g transform="matrix(2.6891 0 0 2.6891 -82.906 -48.45)">
                    <path d="m0 0h51.2v51.2h-51.2z" fill="none" stroke-width="1.0667"/>
                </g>
            </g>
        </g>
        <path d="m4.1958 1096.8c-0.66332 0-1.1979 0.5346-1.1979 1.1979v0.3334c0-0.6634 0.53459-1.1979 1.1979-1.1979h20.354c0.66332 0 1.1979 0.5345 1.1979 1.1979v-0.3334c0-0.6633-0.5346-1.1979-1.1979-1.1979z" fill="#fff" opacity=".2"/>
        <g fill="none" stroke-width="1.0667">
            <rect x="128" y="546.52" width="42.667" height="42.667"/>
            <rect x="128" y="631.85" width="42.667" height="42.667"/>
            <rect x="128" y="674.52" width="42.667" height="42.667"/>
            <rect x="128" y="589.19" width="42.667" height="42.667"/>
            <rect x="128" y="717.19" width="42.667" height="42.667"/>
            <rect x="213.33" y="546.52" width="42.667" height="42.667"/>
            <rect x="213.33" y="631.85" width="42.667" height="42.667"/>
            <rect x="213.33" y="674.52" width="42.667" height="42.667"/>
            <rect x="213.33" y="589.19" width="42.667" height="42.667"/>
            <rect x="213.33" y="717.19" width="42.667" height="42.667"/>
            <rect x="298.67" y="546.52" width="42.667" height="42.667"/>
            <rect x="298.67" y="631.85" width="42.667" height="42.667"/>
            <rect x="298.67" y="674.52" width="42.667" height="42.667"/>
            <rect x="298.67" y="589.19" width="42.667" height="42.667"/>
            <rect x="298.67" y="717.19" width="42.667" height="42.667"/>
            <rect x="170.67" y="546.52" width="42.667" height="42.667"/>
            <rect x="170.67" y="631.85" width="42.667" height="42.667"/>
            <rect x="170.67" y="674.52" width="42.667" height="42.667"/>
            <rect x="170.67" y="589.19" width="42.667" height="42.667"/>
            <rect x="170.67" y="717.19" width="42.667" height="42.667"/>
            <rect x="256" y="546.52" width="42.667" height="42.667"/>
            <rect x="256" y="631.85" width="42.667" height="42.667"/>
            <rect x="256" y="674.52" width="42.667" height="42.667"/>
            <rect x="256" y="589.19" width="42.667" height="42.667"/>
            <rect x="256" y="717.19" width="42.667" height="42.667"/>
            <rect x="128" y="759.85" width="42.667" height="42.667"/>
            <rect x="213.33" y="759.85" width="42.667" height="42.667"/>
            <rect x="298.67" y="759.85" width="42.667" height="42.667"/>
            <rect x="170.67" y="759.85" width="42.667" height="42.667"/>
            <rect x="256" y="759.85" width="42.667" height="42.667"/>
            <rect x="341.33" y="589.19" width="42.667" height="42.667"/>
            <rect x="341.33" y="631.85" width="42.667" height="42.667"/>
            <rect x="341.33" y="717.19" width="42.667" height="42.667"/>
            <rect x="341.33" y="546.52" width="42.667" height="42.667"/>
            <rect x="341.33" y="674.52" width="42.667" height="42.667"/>
            <rect x="341.33" y="759.85" width="42.667" height="42.667"/>
            <rect x="160" y="578.52" width="192" height="192"/>
        </g>
        <g transform="matrix(.37344 0 0 .37344 4.7333 1097.4)">
            <path d="m0 0h51.2v51.2h-51.2z" fill="none" stroke-width="1.0667"/>
        </g>
        <g transform="matrix(.36471 0 0 .36471 5.1356 1097.4)">
            <path d="m0 0h51.2v51.2h-51.2z" fill="none" stroke-width="1.0667"/>
        </g>
        <g transform="matrix(.41585 0 0 .41585 84.325 1055.9)">
            <g transform="matrix(.062269 0 0 .062269 -28.238 185.29)">
                <g transform="matrix(38.618 0 0 38.618 14724 -13542)">
                    <g transform="matrix(.71436 0 0 .71436 -400.52 188.34)">
                        <path d="m1293.2-120.67c-181.75 0.2763-511.18 0.13525-699.05 0.13998-2.3216 10.413-3.593 21.251-3.593 32.384v114c207.65 0.73695 494.72 0.38136 706.23 0.3733v-114.37c0-11.18-1.2522-22.07-3.593-32.523zm-458.69 295.56c-78.385-4e-3 -158.85 0.17892-243.95 0.55995v138.63c286.34-0.39317 421.73-0.13827 706.23-0.32664v-137.75c-163.2-0.53005-311.22-1.1113-462.28-1.1199z" opacity="0" stroke-width="1.4932"/>
                    </g>
                </g>
            </g>
        </g>
        <path d="m24.549 1119.5c0.66325 0 1.1979-0.5346 1.1979-1.1979v-0.3333c0 0.6632-0.53461 1.1978-1.1979 1.1978h-20.354c-0.66325 0-1.1979-0.5346-1.1979-1.1978v0.3333c0 0.6633 0.53461 1.1979 1.1979 1.1979z" fill="#263238" opacity=".2"/>
    </g>
    <path d="m9.0125 18.793c-0.3698-0.0019-0.43506-0.06479-0.43885-0.41047-0.00236-0.22841-0.00426-0.45729 4.728e-4 -0.6857 0.0052-0.26246 0.11586-0.37359 0.3769-0.37784 0.26813-0.0047 0.53626-0.0071 0.80345 0.0014 0.16599 0.0057 0.24165-0.0402 0.2407-0.22462-0.00567-1.4736-0.00757-2.9471 0.00189-4.4206 0.0014205-0.18251-0.10498-0.19906-0.22179-0.24257-1.5932-0.59348-2.0448-2.6369-0.82757-3.786 0.67719-0.63888 1.4863-0.82142 2.3621-0.51924 0.84885 0.2932 1.3586 0.91647 1.5137 1.8065 0.18348 1.0546-0.42702 2.0963-1.4579 2.4751-0.21233 0.07803-0.29036 0.17592-0.27806 0.40149 0.02034 0.36177 0.0095 0.72495 0.0038 1.0872-0.0028 0.16078 0.05627 0.2251 0.22179 0.22273 0.47242-0.0076 0.94532 0.0014 1.4182-0.0071 0.07614-0.0014 0.17072-0.03736 0.22368-0.09032 1.3671-1.3634 2.7291-2.7314 4.0948-4.0958 0.09742-0.097889 0.11018-0.18254 0.10309-0.32535-0.0279-0.56558-0.03925-1.135-8e-3 -1.7001 0.02033-0.3698 0.41993-0.67577 0.82095-0.6857 0.40953-0.010404 0.81953-0.011349 1.2291-4.723e-4 0.51546 0.014187 0.87675 0.39629 0.87911 0.91411 0.0019 0.39392 0.0033 0.78784-4.77e-4 1.1818-0.0043 0.51924-0.36176 0.88006-0.87722 0.87297-0.5339-0.0071-1.0673-0.03263-1.6012-0.04398-0.04587-0.0014-0.10262 0.03452-0.13809 0.06952-1.2915 1.2697-2.5811 2.5418-3.8707 3.8139 0.01371 0.02506 0.02743 0.0506 0.04162 0.07566 0.06337 0.0061 0.12674 0.01844 0.1901 0.01844 1.1506 9.53e-4 2.3011-0.0028 3.4517 0.0038 0.18301 0.0014 0.24401-0.04776 0.2426-0.23834-0.0043-0.60909 0.35751-0.95478 0.97275-0.95525 0.37075 0 0.74103-0.0014 1.1113 4.76e-4 0.51971 0.0028 0.8933 0.37642 0.89519 0.89425 0.0014 0.38636 9.53e-4 0.77224 0 1.1586-0.0014 0.49512-0.32252 0.87486-0.81196 0.90134-0.44736 0.02412-0.89898 0.01844-1.3459-0.01277-0.49323-0.03405-0.81953-0.4204-0.82615-0.91978-9.53e-4 -0.09316 0-0.18632 0-0.29934h-3.9775c0.03878 0.05627 0.061 0.10262 0.09505 0.13667 1.2716 1.257 2.5442 2.5134 3.8191 3.7671 0.04351 0.04303 0.11775 0.07945 0.17686 0.0785 0.58024-0.01087 1.1605-0.04918 1.7403-0.04067 0.37548 0.0061 0.7013 0.37548 0.70982 0.75947 0.0104 0.46486 0.0099 0.93019 4.76e-4 1.3946-0.0085 0.42088-0.37075 0.77933-0.79163 0.78643-0.45682 8e-3 -0.91411 0.0085-1.3709 0-0.40669-0.0076-0.78028-0.3717-0.77839-0.77271 0.0028-0.55707 0.03216-1.1141 0.04114-1.6717 9.53e-4 -0.05817-0.04398-0.13052-0.0889-0.17544-1.4002-1.396-2.8019-2.791-4.2092-4.1799-0.06242-0.06195-0.17781-0.09553-0.26955-0.09742-0.41757-0.0104-0.83561 0.0076-1.2527-0.0095-0.21611-9e-3 -0.26246 0.0681-0.26151 0.27002 0.0066 1.8831 0.0071 3.7666-0.0038 5.6497-9.44e-4 0.1674-0.05864 0.36366-0.15842 0.49418-0.13761 0.18017-0.36082 0.21233-0.58166 0.12295-0.21706-0.08796-0.35325-0.24922-0.34947-0.48425 0.00331-0.18159-0.060531-0.23124-0.23266-0.22462-0.29083 0.01182-0.58308-4.76e-4 -0.87438 0.0033-0.21753 0.0028-0.3211-0.09931-0.31637-0.31542 0.00142-0.0785-0.00426-0.15795 9.459e-4 -0.23598 0.013714-0.2076 0.15653-0.34521 0.36744-0.34852 0.28989-0.0038 0.58024-9.52e-4 0.88668-9.52e-4v-0.76373h-0.81575m2.678-8.9419c-0.026955-0.056747-0.0506-0.11539-0.081811-0.16977-0.2705-0.471-0.82189-0.70225-1.3563-0.57079-0.50316 0.1239-0.9056 0.602-0.91742 1.0985-0.012295 0.5216 0.21233 0.91647 0.67955 1.1439 0.45682 0.22226 0.90843 0.1745 1.3033-0.14849 0.42135-0.34474 0.52775-0.79825 0.37264-1.3534m5.924-0.60956c0.01561 0.33008 0.10262 0.45634 0.34616 0.4606 0.41662 0.00709 0.83372 0.0052 1.2503-4.723e-4 0.21517-0.00284 0.34663-0.13809 0.35514-0.33812 0.0175-0.43081 0.01702-0.86351 0.0028-1.2953-8e-3 -0.23692-0.14612-0.34758-0.38683-0.35042-0.39345-0.00378-0.78643-0.00568-1.1799 4.723e-4 -0.26482 0.00426-0.38494 0.13194-0.38636 0.39392-0.0024 0.36177-9.53e-4 0.72353-0.0014 1.1293m1.1993 11.809c0.11018 0 0.22037 9.52e-4 0.33055-4.76e-4 0.31164-0.0038 0.41236-0.09316 0.41804-0.40527 0.0076-0.40906 0.0043-0.81858-0.0033-1.2272-0.0043-0.22983-0.1239-0.34474-0.35514-0.34758-0.38541-0.0047-0.77129-0.0028-1.1567-0.0014-0.29982 9.53e-4 -0.42182 0.10924-0.42797 0.40385-0.0085 0.39345-0.0076 0.7869-9.53e-4 1.1803 0.0043 0.26671 0.12816 0.38872 0.39345 0.39581 0.25158 0.0066 0.50363 0.0019 0.80203 0.0019m-0.08983-5.6615c0.29934 0 0.59916 0.0043 0.89803-9.52e-4 0.22888-0.0038 0.35798-0.12248 0.36224-0.34663 0.0076-0.41709 0.0066-0.83513-9.52e-4 -1.2522-0.0043-0.22841-0.13099-0.35231-0.35136-0.3542-0.41709-0.0043-0.83466-0.0033-1.2522-4.76e-4 -0.20524 0.0014-0.33245 0.10687-0.33623 0.31542-0.0076 0.42513-0.0085 0.85074 0 1.2763 0.0052 0.23408 0.14329 0.35656 0.37453 0.36224 0.08654 0.0024 0.17355 4.76e-4 0.30596 4.76e-4z" fill="#fff" stroke="#000" stroke-opacity="0" stroke-width=".04729"/>
    <g display="none" fill="none">
        <rect transform="rotate(90)" x="7.8232" y="-20.923" width="13.1" height="13.1" display="inline" stroke="#000" stroke-width=".070382"/>
        <rect x="7.2241" y="8.6528" width="14.298" height="11.441" stroke="#5261ff" stroke-linecap="round" stroke-linejoin="round" stroke-width=".06959"/>
        <rect transform="rotate(90)" x="7.2241" y="-20.094" width="14.298" height="11.441" display="inline" stroke="#0f0" stroke-linecap="round" stroke-linejoin="round" stroke-width=".06959"/>
    </g>
</svg>
