<?xml version="1.0" encoding="UTF-8"?>
<svg version="1.1" viewBox="0 0 28.747 28.747" xmlns="http://www.w3.org/2000/svg">
    <defs>
        <filter id="filter6206-7" x="-.072" y="-.072" width="1.144" height="1.144" color-interpolation-filters="sRGB">
            <feGaussianBlur stdDeviation="0.658125"/>
        </filter>
    </defs>
    <g transform="translate(0 -1093.8)">
        <path transform="matrix(1.0781 0 0 1.0641 -.093733 2.7509)" d="m4.4177 1028.2v1.6051h-1.6052v18.192h1.6052v2.1402h18.192v-2.1402h2.1402v-18.192h-2.1402v-1.6051z" fill="#1a237e" filter="url(#filter6206-7)" opacity=".2"/>
        <rect x="2.9987" y="1096.8" width="22.749" height="22.749" rx="1.1973" ry="1.1974" fill="#3f51b5"/>
        <g transform="translate(-22.32 1056.5)">
            <path d="m0 0h51.2v51.2h-51.2z" fill="none" stroke-width="1.0667"/>
            <g transform="matrix(.33601 0 0 .33601 1.5296 73.043)">
                <path d="m0 0h51.2v51.2h-51.2z" fill="none" stroke-width="1.0667"/>
            </g>
            <g transform="matrix(.37187 0 0 .37187 38.802 63.239)">
                <path d="m0 0h51.2v51.2h-51.2z" fill="none" stroke-width="1.0667"/>
                <g transform="matrix(2.6891 0 0 2.6891 -82.906 -48.45)">
                    <path d="m0 0h51.2v51.2h-51.2z" fill="none" stroke-width="1.0667"/>
                </g>
            </g>
        </g>
        <path d="m4.1958 1096.8c-0.66332 0-1.1979 0.5346-1.1979 1.1979v0.3334c0-0.6634 0.53459-1.1979 1.1979-1.1979h20.354c0.66332 0 1.1979 0.5345 1.1979 1.1979v-0.3334c0-0.6633-0.5346-1.1979-1.1979-1.1979z" fill="#fff" opacity=".2"/>
        <g fill="none" stroke-width="1.0667">
            <rect x="128" y="546.52" width="42.667" height="42.667"/>
            <rect x="128" y="631.85" width="42.667" height="42.667"/>
            <rect x="128" y="674.52" width="42.667" height="42.667"/>
            <rect x="128" y="589.19" width="42.667" height="42.667"/>
            <rect x="128" y="717.19" width="42.667" height="42.667"/>
            <rect x="213.33" y="546.52" width="42.667" height="42.667"/>
            <rect x="213.33" y="631.85" width="42.667" height="42.667"/>
            <rect x="213.33" y="674.52" width="42.667" height="42.667"/>
            <rect x="213.33" y="589.19" width="42.667" height="42.667"/>
            <rect x="213.33" y="717.19" width="42.667" height="42.667"/>
            <rect x="298.67" y="546.52" width="42.667" height="42.667"/>
            <rect x="298.67" y="631.85" width="42.667" height="42.667"/>
            <rect x="298.67" y="674.52" width="42.667" height="42.667"/>
            <rect x="298.67" y="589.19" width="42.667" height="42.667"/>
            <rect x="298.67" y="717.19" width="42.667" height="42.667"/>
            <rect x="170.67" y="546.52" width="42.667" height="42.667"/>
            <rect x="170.67" y="631.85" width="42.667" height="42.667"/>
            <rect x="170.67" y="674.52" width="42.667" height="42.667"/>
            <rect x="170.67" y="589.19" width="42.667" height="42.667"/>
            <rect x="170.67" y="717.19" width="42.667" height="42.667"/>
            <rect x="256" y="546.52" width="42.667" height="42.667"/>
            <rect x="256" y="631.85" width="42.667" height="42.667"/>
            <rect x="256" y="674.52" width="42.667" height="42.667"/>
            <rect x="256" y="589.19" width="42.667" height="42.667"/>
            <rect x="256" y="717.19" width="42.667" height="42.667"/>
            <rect x="128" y="759.85" width="42.667" height="42.667"/>
            <rect x="213.33" y="759.85" width="42.667" height="42.667"/>
            <rect x="298.67" y="759.85" width="42.667" height="42.667"/>
            <rect x="170.67" y="759.85" width="42.667" height="42.667"/>
            <rect x="256" y="759.85" width="42.667" height="42.667"/>
            <rect x="341.33" y="589.19" width="42.667" height="42.667"/>
            <rect x="341.33" y="631.85" width="42.667" height="42.667"/>
            <rect x="341.33" y="717.19" width="42.667" height="42.667"/>
            <rect x="341.33" y="546.52" width="42.667" height="42.667"/>
            <rect x="341.33" y="674.52" width="42.667" height="42.667"/>
            <rect x="341.33" y="759.85" width="42.667" height="42.667"/>
            <rect x="160" y="578.52" width="192" height="192"/>
        </g>
        <g transform="matrix(.37344 0 0 .37344 4.7333 1097.4)">
            <path d="m0 0h51.2v51.2h-51.2z" fill="none" stroke-width="1.0667"/>
        </g>
        <g transform="matrix(.36471 0 0 .36471 5.1356 1097.4)">
            <path d="m0 0h51.2v51.2h-51.2z" fill="none" stroke-width="1.0667"/>
        </g>
        <g transform="matrix(.41585 0 0 .41585 84.325 1055.9)">
            <g transform="matrix(.062269 0 0 .062269 -28.238 185.29)">
                <g transform="matrix(38.618 0 0 38.618 14724 -13542)">
                    <g transform="matrix(.71436 0 0 .71436 -400.52 188.34)">
                        <path d="m1293.2-120.67c-181.75 0.2763-511.18 0.13525-699.05 0.13998-2.3216 10.413-3.593 21.251-3.593 32.384v114c207.65 0.73695 494.72 0.38136 706.23 0.3733v-114.37c0-11.18-1.2522-22.07-3.593-32.523zm-458.69 295.56c-78.385-4e-3 -158.85 0.17892-243.95 0.55995v138.63c286.34-0.39317 421.73-0.13827 706.23-0.32664v-137.75c-163.2-0.53005-311.22-1.1113-462.28-1.1199z" opacity="0" stroke-width="1.4932"/>
                    </g>
                </g>
            </g>
        </g>
        <path d="m24.549 1119.5c0.66325 0 1.1979-0.5346 1.1979-1.1979v-0.3333c0 0.6632-0.53461 1.1978-1.1979 1.1978h-20.354c-0.66325 0-1.1979-0.5346-1.1979-1.1978v0.3333c0 0.6633 0.53461 1.1979 1.1979 1.1979z" fill="#1a237e" opacity=".2"/>
    </g>
    <path d="m14.373 7.7827c3.6399 0 6.5907 2.9507 6.5907 6.5907s-2.9507 6.5907-6.5907 6.5907-6.5907-2.9507-6.5907-6.5907 2.9507-6.5907 6.5907-6.5907zm-1.7627 6.8496c-0.40015 0-0.78068 0.09023-1.1416 0.27068-0.35698 0.18047-0.6473 0.46881-0.87089 0.86502-0.14458 0.26077-0.23989 0.57676-0.28592 0.94797-0.04259 0.34346 0.24653 0.6232 0.5926 0.6232 0.35471 0 0.61955-0.29797 0.70546-0.6421 0.04869-0.19512 0.12715-0.34985 0.23536-0.46418 0.20792-0.2197 0.47077-0.32953 0.78854-0.32953 0.21185 0 0.40605 0.05296 0.58258 0.15887 0.17653 0.102 0.40602 0.27658 0.68847 0.52373 0.43154 0.38053 0.81209 0.65711 1.1416 0.8297 0.32953 0.16871 0.69436 0.25305 1.0945 0.25305s0.78068-0.09023 1.1416-0.27068c0.36092-0.18047 0.65317-0.46881 0.87679-0.86502 0.14772-0.26177 0.24324-0.57918 0.28651-0.95222 0.03972-0.34246-0.24983-0.61896-0.5946-0.61896-0.3569 2.6e-5 -0.62308 0.30132-0.71797 0.64542-0.04627 0.16773-0.11616 0.30958-0.20969 0.42556-0.19615 0.24324-0.46487 0.36486-0.80617 0.36486-0.21185 0-0.40409-0.05102-0.57668-0.153-0.1687-0.10594-0.40015-0.28247-0.69439-0.52962-0.43545-0.36483-0.81796-0.63551-1.1475-0.81207-0.32559-0.18044-0.68847-0.27068-1.0886-0.27068zm0-3.5542c-0.40015 0-0.78068 0.09023-1.1416 0.27068-0.35698 0.18047-0.6473 0.46881-0.87089 0.86502-0.14458 0.26077-0.23989 0.57676-0.28592 0.94795-0.04259 0.34346 0.24653 0.6232 0.5926 0.62323 0.35471 0 0.61955-0.29797 0.70546-0.6421 0.04869-0.19512 0.12715-0.34985 0.23536-0.4642 0.20792-0.21968 0.47077-0.32953 0.78854-0.32953 0.21185 0 0.40605 0.05299 0.58258 0.1589 0.17653 0.102 0.40602 0.27658 0.68847 0.52373 0.43154 0.38053 0.81209 0.65711 1.1416 0.8297 0.32953 0.16871 0.69436 0.25305 1.0945 0.25305s0.78068-0.09023 1.1416-0.27068c0.36092-0.18047 0.65317-0.46881 0.87679-0.86502 0.14772-0.26177 0.24324-0.57918 0.28651-0.95222 0.03972-0.34248-0.24983-0.61896-0.5946-0.61896-0.3569 0-0.62308 0.30132-0.71797 0.64542-0.04627 0.16773-0.11616 0.30958-0.20969 0.42556-0.19615 0.24324-0.46487 0.36483-0.80617 0.36483-0.21185 0-0.40409-0.051-0.57668-0.15298-0.1687-0.10594-0.40015-0.28247-0.69439-0.52962-0.43545-0.36483-0.81796-0.63554-1.1475-0.81207-0.32559-0.18044-0.68847-0.27068-1.0886-0.27068z" fill="#fff" stroke-width=".025745"/>
    <g display="none" fill="none">
        <rect transform="rotate(90)" x="7.8232" y="-20.923" width="13.1" height="13.1" display="inline" stroke="#000" stroke-width=".070382"/>
        <rect x="7.2241" y="8.6528" width="14.298" height="11.441" stroke="#5261ff" stroke-linecap="round" stroke-linejoin="round" stroke-width=".06959"/>
        <rect transform="rotate(90)" x="7.2241" y="-20.094" width="14.298" height="11.441" display="inline" stroke="#0f0" stroke-linecap="round" stroke-linejoin="round" stroke-width=".06959"/>
    </g>
</svg>
