<?xml version="1.0" encoding="UTF-8"?>
<svg version="1.1" viewBox="0 0 28.747 28.747" xml:space="preserve" xmlns="http://www.w3.org/2000/svg"><defs><filter id="filter6206-7" x="-.072" y="-.072" width="1.144" height="1.144" color-interpolation-filters="sRGB"><feGaussianBlur stdDeviation="0.658125"/></filter></defs><g transform="translate(0 -1093.8)"><path transform="matrix(1.0781 0 0 1.0641 -.093733 2.7509)" d="m4.4177 1028.2v1.6051h-1.6052v18.192h1.6052v2.1402h18.192v-2.1402h2.1402v-18.192h-2.1402v-1.6051z" fill="#212121" filter="url(#filter6206-7)" opacity=".2"/><rect x="2.9987" y="1096.8" width="22.749" height="22.749" rx="1.1973" ry="1.1974" fill="#9e9e9e"/><g transform="translate(-22.32 1056.5)"><path d="m0 0h51.2v51.2h-51.2z" fill="none" stroke-width="1.0667"/><g transform="matrix(.33601 0 0 .33601 1.5296 73.043)"><path d="m0 0h51.2v51.2h-51.2z" fill="none" stroke-width="1.0667"/></g><g transform="matrix(.37187 0 0 .37187 38.802 63.239)"><path d="m0 0h51.2v51.2h-51.2z" fill="none" stroke-width="1.0667"/><g transform="matrix(2.6891 0 0 2.6891 -82.906 -48.45)"><path d="m0 0h51.2v51.2h-51.2z" fill="none" stroke-width="1.0667"/></g></g></g><path d="m4.1958 1096.8c-0.66332 0-1.1979 0.5346-1.1979 1.1979v0.3334c0-0.6634 0.53459-1.1979 1.1979-1.1979h20.354c0.66332 0 1.1979 0.5345 1.1979 1.1979v-0.3334c0-0.6633-0.5346-1.1979-1.1979-1.1979z" fill="#fff" opacity=".2"/><rect x="128" y="546.52" width="42.667" height="42.667" fill="none" stroke-width="1.0667"/><rect x="128" y="631.85" width="42.667" height="42.667" fill="none" stroke-width="1.0667"/><rect x="128" y="674.52" width="42.667" height="42.667" fill="none" stroke-width="1.0667"/><rect x="128" y="589.19" width="42.667" height="42.667" fill="none" stroke-width="1.0667"/><rect x="128" y="717.19" width="42.667" height="42.667" fill="none" stroke-width="1.0667"/><rect x="213.33" y="546.52" width="42.667" height="42.667" fill="none" stroke-width="1.0667"/><rect x="213.33" y="631.85" width="42.667" height="42.667" fill="none" stroke-width="1.0667"/><rect x="213.33" y="674.52" width="42.667" height="42.667" fill="none" stroke-width="1.0667"/><rect x="213.33" y="589.19" width="42.667" height="42.667" fill="none" stroke-width="1.0667"/><rect x="213.33" y="717.19" width="42.667" height="42.667" fill="none" stroke-width="1.0667"/><rect x="298.67" y="546.52" width="42.667" height="42.667" fill="none" stroke-width="1.0667"/><rect x="298.67" y="631.85" width="42.667" height="42.667" fill="none" stroke-width="1.0667"/><rect x="298.67" y="674.52" width="42.667" height="42.667" fill="none" stroke-width="1.0667"/><rect x="298.67" y="589.19" width="42.667" height="42.667" fill="none" stroke-width="1.0667"/><rect x="298.67" y="717.19" width="42.667" height="42.667" fill="none" stroke-width="1.0667"/><rect x="170.67" y="546.52" width="42.667" height="42.667" fill="none" stroke-width="1.0667"/><rect x="170.67" y="631.85" width="42.667" height="42.667" fill="none" stroke-width="1.0667"/><rect x="170.67" y="674.52" width="42.667" height="42.667" fill="none" stroke-width="1.0667"/><rect x="170.67" y="589.19" width="42.667" height="42.667" fill="none" stroke-width="1.0667"/><rect x="170.67" y="717.19" width="42.667" height="42.667" fill="none" stroke-width="1.0667"/><rect x="256" y="546.52" width="42.667" height="42.667" fill="none" stroke-width="1.0667"/><rect x="256" y="631.85" width="42.667" height="42.667" fill="none" stroke-width="1.0667"/><rect x="256" y="674.52" width="42.667" height="42.667" fill="none" stroke-width="1.0667"/><rect x="256" y="589.19" width="42.667" height="42.667" fill="none" stroke-width="1.0667"/><rect x="256" y="717.19" width="42.667" height="42.667" fill="none" stroke-width="1.0667"/><rect x="128" y="759.85" width="42.667" height="42.667" fill="none" stroke-width="1.0667"/><rect x="213.33" y="759.85" width="42.667" height="42.667" fill="none" stroke-width="1.0667"/><rect x="298.67" y="759.85" width="42.667" height="42.667" fill="none" stroke-width="1.0667"/><rect x="170.67" y="759.85" width="42.667" height="42.667" fill="none" stroke-width="1.0667"/><rect x="256" y="759.85" width="42.667" height="42.667" fill="none" stroke-width="1.0667"/><rect x="341.33" y="589.19" width="42.667" height="42.667" fill="none" stroke-width="1.0667"/><rect x="341.33" y="631.85" width="42.667" height="42.667" fill="none" stroke-width="1.0667"/><rect x="341.33" y="717.19" width="42.667" height="42.667" fill="none" stroke-width="1.0667"/><rect x="341.33" y="546.52" width="42.667" height="42.667" fill="none" stroke-width="1.0667"/><rect x="341.33" y="674.52" width="42.667" height="42.667" fill="none" stroke-width="1.0667"/><rect x="341.33" y="759.85" width="42.667" height="42.667" fill="none" stroke-width="1.0667"/><rect x="160" y="578.52" width="192" height="192" fill="none" stroke-width="1.0667"/><g transform="matrix(.37344 0 0 .37344 4.7333 1097.4)"><path d="m0 0h51.2v51.2h-51.2z" fill="none" stroke-width="1.0667"/></g><g transform="matrix(.36471 0 0 .36471 5.1356 1097.4)"><path d="m0 0h51.2v51.2h-51.2z" fill="none" stroke-width="1.0667"/></g><g transform="matrix(.41585 0 0 .41585 84.325 1055.9)"><g transform="matrix(.062269 0 0 .062269 -28.238 185.29)"><g transform="matrix(38.618 0 0 38.618 14724 -13542)"><g transform="matrix(.71436 0 0 .71436 -400.52 188.34)"><path d="m1293.2-120.67c-181.75 0.2763-511.18 0.13525-699.05 0.13998-2.3216 10.413-3.593 21.251-3.593 32.384v114c207.65 0.73695 494.72 0.38136 706.23 0.3733v-114.37c0-11.18-1.2522-22.07-3.593-32.523zm-458.69 295.56c-78.385-4e-3 -158.85 0.17892-243.95 0.55995v138.63c286.34-0.39317 421.73-0.13827 706.23-0.32664v-137.75c-163.2-0.53005-311.22-1.1113-462.28-1.1199z" opacity="0" stroke-width="1.4932"/></g></g></g></g><path d="m24.549 1119.5c0.66325 0 1.1979-0.5346 1.1979-1.1979v-0.3333c0 0.6632-0.53461 1.1978-1.1979 1.1978h-20.354c-0.66325 0-1.1979-0.5346-1.1979-1.1978v0.3333c0 0.6633 0.53461 1.1979 1.1979 1.1979z" fill="#212121" opacity=".2"/></g><path d="m14.218 7.9122h-0.11883v1.6074c-0.43253 0.1212-0.75336 0.50976-0.75336 0.97734 0 0.09476 0.01426 0.1824 0.03594 0.26439l-1.6897 0.94972c-0.06119-0.05763-0.12922-0.10872-0.2017-0.15388l-0.0021-0.0015-0.0021-0.0012c-0.40906-0.23201-0.91288-0.15418-1.2331 0.15536l-1.3092-0.74534-0.10249-0.05823-0.059116 0.10189-0.15566 0.26884-0.060007 0.10338 0.10397 0.05941 1.3071 0.74415c-0.11318 0.43223 0.073078 0.89981 0.48214 1.1318l8.86e-4 2.96e-4 5.9e-4 5.9e-4c0.06714 0.03654 0.13516 0.06625 0.20587 0.08823v1.9369c-0.0707 0.02198-0.13873 0.05169-0.20587 0.08853l-5.9e-4 2.96e-4 -8.86e-4 2.95e-4c-0.40906 0.2323-0.59532 0.69959-0.48214 1.1318l-1.3071 0.74415-0.10397 0.05941 0.060007 0.10338 0.15566 0.26884 0.059116 0.10189 0.10249-0.05823 1.3092-0.74534c0.32024 0.30954 0.82406 0.38737 1.2331 0.15536l0.0021-0.0012 0.0021-0.0015c0.07248-0.04515 0.14051-0.09625 0.20171-0.15388l1.6897 0.94972c-0.02169 0.08199-0.03594 0.16962-0.03594 0.26439 0 0.46758 0.32083 0.85644 0.75336 0.97734v1.6074h0.54898v-1.6074c0.43253-0.12091 0.75336-0.50976 0.75336-0.97734 0-0.09417-0.01426-0.1824-0.03802-0.26558 0.35143-0.19547 0.70167-0.39242 1.051-0.58878 0.21389-0.12031 0.42748-0.24032 0.64077-0.36004 0.0612 0.05763 0.12922 0.10902 0.20171 0.15418l0.0021 0.0015 0.0021 0.0012c0.40906 0.23201 0.91258 0.15418 1.2331-0.15536l1.3092 0.74534 0.10249 0.05823 0.05941-0.10189 0.15536-0.26884 0.06001-0.10338-0.10397-0.05941-1.3071-0.74415c0.11318-0.43223-0.07308-0.89951-0.48214-1.1318l-5.91e-4 -2.95e-4 -8.85e-4 -2.96e-4c-0.06714-0.03684-0.13516-0.06654-0.20587-0.08853v-1.9368c0.0707-0.02198 0.13873-0.05169 0.20587-0.08823l8.85e-4 -5.9e-4 5.91e-4 -2.96e-4c0.40906-0.23201 0.59532-0.69959 0.48214-1.1318l1.3071-0.74415 0.10397-0.05941-0.06001-0.10338-0.15536-0.26884-0.05941-0.10189-0.10249 0.05823-1.3092 0.74534c-0.32056-0.30955-0.82409-0.38738-1.2331-0.15537l-0.0021 0.0012-0.0021 0.0015c-0.07248 0.04515-0.14051 0.09655-0.20171 0.15388l-1.6918-0.94823c0.02376-0.08318 0.03802-0.17141 0.03802-0.26587 0-0.46758-0.32083-0.85614-0.75336-0.97734v-1.6075h-0.11883zm3.3135 7.4141c-0.26112 0.06417-0.49818 0.22844-0.64463 0.47857-0.1414 0.23646-0.17052 0.51006-0.10754 0.75722l-1.6939 0.95388c-0.18626-0.17497-0.43401-0.28221-0.71177-0.28221s-0.52551 0.10724-0.71177 0.28221l-1.6939-0.95388c0.06298-0.24716 0.03387-0.52076-0.10754-0.75722-0.14645-0.25013-0.38351-0.41441-0.64463-0.47857v-1.9057c0.26112-0.06446 0.49818-0.22874 0.64463-0.47887 0.1414-0.23646 0.17052-0.51006 0.10754-0.75722l1.6939-0.95388c0.18626 0.17497 0.43401 0.28221 0.71177 0.28221s0.52551-0.10724 0.71177-0.28221l1.6939 0.95388c-0.06298 0.24716-0.03387 0.52076 0.10754 0.75722 0.14645 0.25013 0.38351 0.4144 0.64463 0.47887z" fill="#fff" stroke="#fff" stroke-width=".23765"/><g display="none" fill="none"><rect transform="rotate(90)" x="7.8232" y="-20.923" width="13.1" height="13.1" display="inline" stroke="#000" stroke-width=".070382"/><rect x="7.2241" y="8.6528" width="14.298" height="11.441" stroke="#5261ff" stroke-linecap="round" stroke-linejoin="round" stroke-width=".06959"/><rect transform="rotate(90)" x="7.2241" y="-20.094" width="14.298" height="11.441" display="inline" stroke="#0f0" stroke-linecap="round" stroke-linejoin="round" stroke-width=".06959"/></g></svg>
