<?xml version="1.0" encoding="UTF-8"?>
<svg version="1.1" viewBox="0 0 28.747 28.747" xmlns="http://www.w3.org/2000/svg">
    <defs>
        <filter id="filter6206-7" x="-.072" y="-.072" width="1.144" height="1.144" color-interpolation-filters="sRGB">
            <feGaussianBlur stdDeviation="0.658125"/>
        </filter>
    </defs>
    <g transform="translate(0 -1093.8)">
        <path transform="matrix(1.0781 0 0 1.0641 -.093733 2.7509)" d="m4.4177 1028.2v1.6051h-1.6052v18.192h1.6052v2.1402h18.192v-2.1402h2.1402v-18.192h-2.1402v-1.6051z" fill="#263238" filter="url(#filter6206-7)" opacity=".2"/>
        <rect x="2.9987" y="1096.8" width="22.749" height="22.749" rx="1.1973" ry="1.1974" fill="#4caf50"/>
        <g transform="translate(-22.32 1056.5)">
            <path d="m0 0h51.2v51.2h-51.2z" fill="none" stroke-width="1.0667"/>
            <g transform="matrix(.33601 0 0 .33601 1.5296 73.043)">
                <path d="m0 0h51.2v51.2h-51.2z" fill="none" stroke-width="1.0667"/>
            </g>
            <g transform="matrix(.37187 0 0 .37187 38.802 63.239)">
                <path d="m0 0h51.2v51.2h-51.2z" fill="none" stroke-width="1.0667"/>
                <g transform="matrix(2.6891 0 0 2.6891 -82.906 -48.45)">
                    <path d="m0 0h51.2v51.2h-51.2z" fill="none" stroke-width="1.0667"/>
                </g>
            </g>
        </g>
        <path d="m4.1958 1096.8c-0.66332 0-1.1979 0.5346-1.1979 1.1979v0.3334c0-0.6634 0.53459-1.1979 1.1979-1.1979h20.354c0.66332 0 1.1979 0.5345 1.1979 1.1979v-0.3334c0-0.6633-0.5346-1.1979-1.1979-1.1979z" fill="#fff" opacity=".2"/>
        <g fill="none" stroke-width="1.0667">
            <rect x="128" y="546.52" width="42.667" height="42.667"/>
            <rect x="128" y="631.85" width="42.667" height="42.667"/>
            <rect x="128" y="674.52" width="42.667" height="42.667"/>
            <rect x="128" y="589.19" width="42.667" height="42.667"/>
            <rect x="128" y="717.19" width="42.667" height="42.667"/>
            <rect x="213.33" y="546.52" width="42.667" height="42.667"/>
            <rect x="213.33" y="631.85" width="42.667" height="42.667"/>
            <rect x="213.33" y="674.52" width="42.667" height="42.667"/>
            <rect x="213.33" y="589.19" width="42.667" height="42.667"/>
            <rect x="213.33" y="717.19" width="42.667" height="42.667"/>
            <rect x="298.67" y="546.52" width="42.667" height="42.667"/>
            <rect x="298.67" y="631.85" width="42.667" height="42.667"/>
            <rect x="298.67" y="674.52" width="42.667" height="42.667"/>
            <rect x="298.67" y="589.19" width="42.667" height="42.667"/>
            <rect x="298.67" y="717.19" width="42.667" height="42.667"/>
            <rect x="170.67" y="546.52" width="42.667" height="42.667"/>
            <rect x="170.67" y="631.85" width="42.667" height="42.667"/>
            <rect x="170.67" y="674.52" width="42.667" height="42.667"/>
            <rect x="170.67" y="589.19" width="42.667" height="42.667"/>
            <rect x="170.67" y="717.19" width="42.667" height="42.667"/>
            <rect x="256" y="546.52" width="42.667" height="42.667"/>
            <rect x="256" y="631.85" width="42.667" height="42.667"/>
            <rect x="256" y="674.52" width="42.667" height="42.667"/>
            <rect x="256" y="589.19" width="42.667" height="42.667"/>
            <rect x="256" y="717.19" width="42.667" height="42.667"/>
            <rect x="128" y="759.85" width="42.667" height="42.667"/>
            <rect x="213.33" y="759.85" width="42.667" height="42.667"/>
            <rect x="298.67" y="759.85" width="42.667" height="42.667"/>
            <rect x="170.67" y="759.85" width="42.667" height="42.667"/>
            <rect x="256" y="759.85" width="42.667" height="42.667"/>
            <rect x="341.33" y="589.19" width="42.667" height="42.667"/>
            <rect x="341.33" y="631.85" width="42.667" height="42.667"/>
            <rect x="341.33" y="717.19" width="42.667" height="42.667"/>
            <rect x="341.33" y="546.52" width="42.667" height="42.667"/>
            <rect x="341.33" y="674.52" width="42.667" height="42.667"/>
            <rect x="341.33" y="759.85" width="42.667" height="42.667"/>
            <rect x="160" y="578.52" width="192" height="192"/>
        </g>
        <g transform="matrix(.37344 0 0 .37344 4.7333 1097.4)">
            <path d="m0 0h51.2v51.2h-51.2z" fill="none" stroke-width="1.0667"/>
        </g>
        <g transform="matrix(.36471 0 0 .36471 5.1356 1097.4)">
            <path d="m0 0h51.2v51.2h-51.2z" fill="none" stroke-width="1.0667"/>
        </g>
        <g transform="matrix(.41585 0 0 .41585 84.325 1055.9)">
            <g transform="matrix(.062269 0 0 .062269 -28.238 185.29)">
                <g transform="matrix(38.618 0 0 38.618 14724 -13542)">
                    <g transform="matrix(.71436 0 0 .71436 -400.52 188.34)">
                        <path d="m1293.2-120.67c-181.75 0.2763-511.18 0.13525-699.05 0.13998-2.3216 10.413-3.593 21.251-3.593 32.384v114c207.65 0.73695 494.72 0.38136 706.23 0.3733v-114.37c0-11.18-1.2522-22.07-3.593-32.523zm-458.69 295.56c-78.385-4e-3 -158.85 0.17892-243.95 0.55995v138.63c286.34-0.39317 421.73-0.13827 706.23-0.32664v-137.75c-163.2-0.53005-311.22-1.1113-462.28-1.1199z" opacity="0" stroke-width="1.4932"/>
                    </g>
                </g>
            </g>
        </g>
        <path d="m24.549 1119.5c0.66325 0 1.1979-0.5346 1.1979-1.1979v-0.3333c0 0.6632-0.53461 1.1978-1.1979 1.1978h-20.354c-0.66325 0-1.1979-0.5346-1.1979-1.1978v0.3333c0 0.6633 0.53461 1.1979 1.1979 1.1979z" fill="#263238" opacity=".2"/>
    </g>
    <g transform="matrix(.69193 0 0 .69193 4.4873 3.8882)" fill="#fff" stroke-miterlimit="3">
        <path transform="matrix(.40909 0 0 .40909 3.8966 3.8966)" d="m25.48 24.342c-0.0019 3.59e-4 -0.0032 0.0017-0.0036 0.0036l-0.07609 0.35715s0.60726 0.90881 0.86562 1.2577c0.05932 0.08009 0.82532 1.1849 0.82532 1.1849l0.12981 0.19522 0.36926 0.57216s0.10794 0.17319 0.1571 0.25504c0.01487 0.02475 0.04387 0.07602 0.04387 0.07602l0.09713 0.17452 0.12308 0.24469 0.06624 0.1381 0.12488 0.27978 0.03536 0.08591 0.06311 0.15294 0.12576 0.3414 0.11323 0.35804 0.0278 0.12872s0.02964 0.22618 0.04028 0.3351c-0.0086 0.02635 0.0083 0.83593 0.03578 0.79976-0.0053 1.0517-0.19211 1.7261 0.17501 2.0232 0.29392-0.18078 0.34334-0.21576 0.62169-0.33286 0.40522-0.17047 0.50333-0.18304 0.59797-0.20286 0.02331 0.11594-0.3449 0.4012-0.63243 0.81146-0.38118 0.54382-0.46457 0.58966-0.37597 0.8254 0.12966 0.34498 0.53749 1.5156 0.88577 2.2526 0.15316 0.32413 0.63349 1.1455 1.0138 1.6503 0.58714 0.77952 0.83849 1.0554 1.3289 1.4313 0.10997 0.08429 0.18208-0.33595 0.53665-0.88252 0.35644-0.54945 0.86939-1.0711 0.92963-1.0049 0.05211 0.05726-0.32602 0.82032-0.43102 1.2496-0.08675 0.35655-0.17245 1.0474 0.02059 1.506 0.3248 0.77153 0.8721 1.4266 1.3016 1.9427 0.78754 0.9465 1.7595 1.7067 1.925 1.7232 0.12113 0.01213 0.13032-0.51256 0.26989-0.96574 0.05462-0.17744 0.14924-0.35758 0.26049-0.4813 0.07442-0.08276 0.11186 0.49964 0.13427 0.62748 0.04032 0.22981 0.07899 0.45787 0.13875 0.68326 0.33208 1.2525 1.5375 2.241 2.5208 2.9354 0.17746 0.12532 0.24044-0.23437 0.40327-0.66796 0.13791-0.36726 0.34185-0.68377 0.39074-0.74353 0.02558-0.03127 0.01031 0.83699 0.02283 1.1304 0.01031 0.24168 0.11764 0.60239 0.18664 0.71474 0.54939 0.89463 2.5214 1.1837 2.9021 1.3548 0.32417 0.14572 0.71395 0.36742 1.0482 0.92526 0.18614 0.31063 0.15896 1.0778 0.27616 1.0076 0.03219-0.01929 0.058-0.06626 0.07788-0.13134 0.08612-0.28202 0.06994-0.90726 0.06938-1.1196-0.0067-2.4646-0.84762-5.5289-2.3095-7.3656-0.19721-0.24777-0.45394-0.43538-0.71344-0.60094-0.03039-0.01934 0.07176 0.0025 0.10742 0.0063 0.23934 0.02554 0.46257 0.01017 0.96364 0.29282 0.15538 0.08764-0.04441-0.55333-0.13204-0.72869-0.54653-1.0938-0.8708-1.682-1.7447-2.5585-0.41629-0.41754-1.3352-1.1389-1.9018-1.2896-0.08245-0.02193-0.70964-0.17011-0.70136-0.22535 0.03703-0.24019 0.82789-0.41772 1.524-0.2456 0.18676 0.09428-0.49357-1.0459-1.4085-2.0214-0.73765-0.78648-1.7008-1.8881-2.4474-2.3975-0.15085-0.10292-0.57388-0.0029-1.0326-0.0094-0.49057-0.0069-1.0209-0.11816-1.2698-0.17453-0.12815-0.02904 0.25442-0.39859 0.77029-0.46735 0.44019-0.07349 0.68136-0.08704 0.65079-0.121-1.1007-1.2217-2.5205-2.0122-4.8137-2.9229-0.02392-0.0095-0.06445-0.02609-0.06445-0.02609l-0.0573-0.02338s-0.08943-0.03577-0.13024-0.05263c-0.09528-0.05136-0.73921-0.38824-0.81548-0.39274-0.16323-0.09501-0.57469-0.36209-0.57469-0.36209l-0.25911-0.16958s-0.08062-0.05272-0.13651-0.08906c-0.02947-0.01917-0.08549-0.05757-0.08549-0.05757l-0.21573-0.14934-0.21126-0.15743-0.11146-0.08727s-0.10675-0.08746-0.15754-0.13089c0.0021-2.59e-4 -0.36072-0.35625-0.36072-0.35625l-0.48293-0.50428c-0.03119-0.03745-0.09265-0.11155-0.09265-0.11155-0.13464-0.16654-0.26336-0.33775-0.39476-0.50683-0.36888-0.47855-1.0959-1.2077-1.1534-1.1965zm1.8011 2.0012c0.0075-0.01982 0.06584 0.0744 0 0zm2.5432 3.4293c0.86686 0.57346 1.862 1.4818 2.7477 2.4838 0.95547 1.081 2.0034 2.2251 2.8703 3.24 0.99327 1.1626 2.1064 2.4606 3.0234 3.6736 0.79043 1.0455 1.2784 1.7738 2.1202 3.0609 0.84946 1.299 1.7247 2.6155 2.3744 4.0303 0.05163 0.11242 0.41803 0.86534 0.40282 1.0116-1e-3 0.0097-0.0039 0.0167-0.0085 0.02069-0.01247 0.01078-0.5937-0.90812-0.6293-0.95989-0.76758-1.1162-1.5405-2.2366-2.3699-3.3133-1.1351-1.4736-1.7197-2.3901-2.779-3.6272-0.81683-0.95392-1.507-1.8598-2.288-2.8522-1.0528-1.3376-2.0678-2.6213-3.1523-3.9246-0.97493-1.1716-1.7178-2.0235-2.3118-2.8437z" color="#000000" stroke-linecap="square" stroke-width=".7276" style="paint-order:markers stroke fill"/>
        <path transform="matrix(.40909 0 0 .40909 3.8966 3.8966)" d="m25.4 4.2333c-11.643 0-21.167 9.5237-21.167 21.167s9.5237 21.167 21.167 21.167c3.6546 0 7.1004-0.93871 10.108-2.5864-0.3631-0.31678-0.78484-0.72942-1.172-1.1948-0.42905-0.51566-1.0046-1.1972-1.3575-2.0355-0.20998-0.49878-0.10659-0.99392-0.03101-1.4061-0.06107 0.11816-0.1401 0.25294-0.18345 0.34572-0.03967 0.0849-0.06521 0.15483-0.13694 0.24805-0.03587 0.04661-0.08639 0.1142-0.21084 0.15658-0.12445 0.04239-0.29951-0.0038-0.37879-0.0646-0.51096-0.39164-0.80603-0.71375-1.3984-1.5002-0.16856-0.22379-0.34756-0.49261-0.51263-0.75758-1.4653 0.55399-3.0578 0.85732-4.7268 0.85732-7.3533 0-13.229-5.8759-13.229-13.229s5.8759-13.229 13.229-13.229 13.229 5.8759 13.229 13.229c0 2.4859-0.67371 4.8017-1.8469 6.7799 0.80425 0.58224 1.7085 1.6311 2.4097 2.3787 0.47509 0.50653 0.88379 1.0486 1.1565 1.4614 0.13637 0.2064 0.23645 0.37527 0.30231 0.51366 0.03293 0.0692 0.06299 0.10923 0.07648 0.23823 0.0034 0.03225 0.0074 0.07272-0.0078 0.13642-0.01517 0.06371-0.063 0.16369-0.15658 0.22686-0.09359 0.06315-0.20004 0.06926-0.26355 0.06046-0.02866-4e-3 -0.05134-0.01006-0.0708-0.01654-0.06599-0.01039-0.12866 0.0053-0.19844-0.0031 0.23461 0.11671 0.47025 0.20879 0.70073 0.3731 0.36994 0.26374 0.71286 0.55559 0.94154 0.78496 0.08819 0.08845 0.16999 0.17409 0.24856 0.25838 2.9034-3.6245 4.6458-8.2143 4.6458-13.192 0-11.643-9.5237-21.167-21.167-21.167zm10.994 28.565c-0.40258 0.60011-0.85546 1.1628-1.3488 1.6867 0.23229 0.26368 0.45832 0.52294 0.67334 0.77463 0.99294 1.1623 2.1099 2.4629 3.037 3.6892 0.4744 0.62747 0.84668 1.1537 1.2449 1.7415 0.50918-0.48653 0.99358-0.99876 1.4526-1.5332-0.09105-0.09914-0.18962-0.2017-0.29714-0.30954-0.18761-0.18817-0.51227-0.46794-0.84749-0.70693-0.33523-0.23899-0.69974-0.43749-0.8909-0.48834-0.01648-0.0044-0.21296-0.0519-0.38861-0.10129-0.08783-0.02469-0.17392-0.05107-0.25166-0.0801-0.03887-0.01452-0.07456-0.02727-0.12299-0.05478-0.02422-0.01376-0.05093-0.02958-0.09405-0.07235-0.02156-0.02138-0.04823-0.04972-0.0739-0.10129-0.01283-0.02578-0.03341-0.09521-0.03359-0.09612-2e-4 -9.07e-4 -0.0017-0.12419-0.0016-0.12506v-0.0016c0.03794-0.24611 0.20612-0.35638 0.3452-0.42995s0.29177-0.11908 0.46302-0.15038c0.14793-0.02703 0.33442 0.01646 0.5023 0.0155-0.0099-0.0152-0.01137-0.0195-0.0217-0.03514-0.24948-0.37761-0.64016-0.89424-1.08-1.3632-0.70155-0.74798-1.6073-1.7629-2.266-2.2583zm-1.8697 2.2092c-23.016-23.338-11.508-11.669 0 0zm-0.53278 0.47956c-0.95165 0.80964-2.0208 1.485-3.1802 1.9999 0.13878 0.21954 0.28283 0.43518 0.40928 0.60306 0.46105 0.61211 0.69015 0.81491 0.99787 1.08 0.07185-0.15116 0.13422-0.29873 0.2713-0.51005 0.19298-0.29747 0.41868-0.57673 0.61547-0.78496 0.09839-0.10412 0.18744-0.18963 0.27544-0.25787 0.044-0.03412 0.08349-0.06462 0.154-0.0956 0.03526-0.01549 0.07886-0.03371 0.15658-0.03721s0.2158 0.02943 0.30282 0.12506c0.10781 0.11844 0.09883 0.20917 0.09922 0.25993s-0.0056 0.08073-0.01137 0.10904c-0.01158 0.05662-0.0275 0.10184-0.04496 0.15245-0.03491 0.10123-0.08054 0.2175-0.13126 0.34365-0.10144 0.2523-0.21905 0.55016-0.25942 0.7152-0.07425 0.30514-0.12378 0.97636 0.0036 1.279 0.29667 0.7047 0.81451 1.3329 1.2444 1.8495 0.37733 0.45349 0.80686 0.87044 1.1545 1.1684 0.04913 0.04212 0.09061 0.07541 0.13178 0.108 0.07227-0.04309 0.14481-0.08578 0.21652-0.12971 0.01677-0.08221 0.03691-0.16825 0.06563-0.26148 0.06901-0.22417 0.17787-0.44158 0.33796-0.6196 0.04265-0.04743 0.13115-0.11901 0.26355-0.12661s0.2416 0.06344 0.29094 0.11317c0.09868 0.09946 0.09729 0.14623 0.11162 0.1912 1.71e-4 5.39e-4 3.46e-4 1e-3 5.16e-4 0.0016 0.49124-0.34305 0.96795-0.70598 1.4278-1.0883-0.50951-0.69311-0.97424-1.3194-1.5963-2.0459-0.825-0.96345-1.5181-1.8737-2.297-2.8634-0.3396-0.43147-0.67527-0.8561-1.0103-1.2785zm6.4089 0.98754c-9e-4 -1e-4 -0.0032 0.0022-0.0041 0.0021 0.0027 6.47e-4 0.0051-6.55e-4 0.0078 0-0.0022-4e-4 -0.0013-0.0017-0.0036-0.0021z" color="#000000" stroke-linecap="round" stroke-width="1.0667" style="paint-order:markers stroke fill"/>
    </g>
    <g display="none" fill="none">
        <rect transform="rotate(90)" x="7.8232" y="-20.923" width="13.1" height="13.1" display="inline" stroke="#000" stroke-width=".070382"/>
        <rect x="7.2241" y="8.6528" width="14.298" height="11.441" stroke="#5261ff" stroke-linecap="round" stroke-linejoin="round" stroke-width=".06959"/>
        <rect transform="rotate(90)" x="7.2241" y="-20.094" width="14.298" height="11.441" display="inline" stroke="#0f0" stroke-linecap="round" stroke-linejoin="round" stroke-width=".06959"/>
    </g>
</svg>
