<?xml version="1.0" encoding="UTF-8"?>
<svg version="1.1" viewBox="0 0 28.747 28.747" xml:space="preserve" xmlns="http://www.w3.org/2000/svg" xmlns:serif="http://www.serif.com/"><defs><filter id="filter6206-7" x="-.072" y="-.072" width="1.144" height="1.144" color-interpolation-filters="sRGB"><feGaussianBlur stdDeviation="0.658125"/></filter></defs><g transform="translate(0 -1093.8)"><path transform="matrix(1.0781 0 0 1.0641 -.093733 2.7509)" d="m4.4177 1028.2v1.6051h-1.6052v18.192h1.6052v2.1402h18.192v-2.1402h2.1402v-18.192h-2.1402v-1.6051z" fill="#1a237e" filter="url(#filter6206-7)" opacity=".2"/><rect x="2.9987" y="1096.8" width="22.749" height="22.749" rx="1.1973" ry="1.1974" fill="#9c27b0"/><g transform="translate(-22.32 1056.5)"><path d="m0 0h51.2v51.2h-51.2z" fill="none" stroke-width="1.0667"/><g transform="matrix(.33601 0 0 .33601 1.5296 73.043)"><path d="m0 0h51.2v51.2h-51.2z" fill="none" stroke-width="1.0667"/></g><g transform="matrix(.37187 0 0 .37187 38.802 63.239)"><path d="m0 0h51.2v51.2h-51.2z" fill="none" stroke-width="1.0667"/><g transform="matrix(2.6891 0 0 2.6891 -82.906 -48.45)"><path d="m0 0h51.2v51.2h-51.2z" fill="none" stroke-width="1.0667"/></g></g></g><path d="m4.1958 1096.8c-0.66332 0-1.1979 0.5346-1.1979 1.1979v0.3334c0-0.6634 0.53459-1.1979 1.1979-1.1979h20.354c0.66332 0 1.1979 0.5345 1.1979 1.1979v-0.3334c0-0.6633-0.5346-1.1979-1.1979-1.1979z" fill="#fff" opacity=".2"/><rect x="128" y="546.52" width="42.667" height="42.667" fill="none" stroke-width="1.0667"/><rect x="128" y="631.85" width="42.667" height="42.667" fill="none" stroke-width="1.0667"/><rect x="128" y="674.52" width="42.667" height="42.667" fill="none" stroke-width="1.0667"/><rect x="128" y="589.19" width="42.667" height="42.667" fill="none" stroke-width="1.0667"/><rect x="128" y="717.19" width="42.667" height="42.667" fill="none" stroke-width="1.0667"/><rect x="213.33" y="546.52" width="42.667" height="42.667" fill="none" stroke-width="1.0667"/><rect x="213.33" y="631.85" width="42.667" height="42.667" fill="none" stroke-width="1.0667"/><rect x="213.33" y="674.52" width="42.667" height="42.667" fill="none" stroke-width="1.0667"/><rect x="213.33" y="589.19" width="42.667" height="42.667" fill="none" stroke-width="1.0667"/><rect x="213.33" y="717.19" width="42.667" height="42.667" fill="none" stroke-width="1.0667"/><rect x="298.67" y="546.52" width="42.667" height="42.667" fill="none" stroke-width="1.0667"/><rect x="298.67" y="631.85" width="42.667" height="42.667" fill="none" stroke-width="1.0667"/><rect x="298.67" y="674.52" width="42.667" height="42.667" fill="none" stroke-width="1.0667"/><rect x="298.67" y="589.19" width="42.667" height="42.667" fill="none" stroke-width="1.0667"/><rect x="298.67" y="717.19" width="42.667" height="42.667" fill="none" stroke-width="1.0667"/><rect x="170.67" y="546.52" width="42.667" height="42.667" fill="none" stroke-width="1.0667"/><rect x="170.67" y="631.85" width="42.667" height="42.667" fill="none" stroke-width="1.0667"/><rect x="170.67" y="674.52" width="42.667" height="42.667" fill="none" stroke-width="1.0667"/><rect x="170.67" y="589.19" width="42.667" height="42.667" fill="none" stroke-width="1.0667"/><rect x="170.67" y="717.19" width="42.667" height="42.667" fill="none" stroke-width="1.0667"/><rect x="256" y="546.52" width="42.667" height="42.667" fill="none" stroke-width="1.0667"/><rect x="256" y="631.85" width="42.667" height="42.667" fill="none" stroke-width="1.0667"/><rect x="256" y="674.52" width="42.667" height="42.667" fill="none" stroke-width="1.0667"/><rect x="256" y="589.19" width="42.667" height="42.667" fill="none" stroke-width="1.0667"/><rect x="256" y="717.19" width="42.667" height="42.667" fill="none" stroke-width="1.0667"/><rect x="128" y="759.85" width="42.667" height="42.667" fill="none" stroke-width="1.0667"/><rect x="213.33" y="759.85" width="42.667" height="42.667" fill="none" stroke-width="1.0667"/><rect x="298.67" y="759.85" width="42.667" height="42.667" fill="none" stroke-width="1.0667"/><rect x="170.67" y="759.85" width="42.667" height="42.667" fill="none" stroke-width="1.0667"/><rect x="256" y="759.85" width="42.667" height="42.667" fill="none" stroke-width="1.0667"/><rect x="341.33" y="589.19" width="42.667" height="42.667" fill="none" stroke-width="1.0667"/><rect x="341.33" y="631.85" width="42.667" height="42.667" fill="none" stroke-width="1.0667"/><rect x="341.33" y="717.19" width="42.667" height="42.667" fill="none" stroke-width="1.0667"/><rect x="341.33" y="546.52" width="42.667" height="42.667" fill="none" stroke-width="1.0667"/><rect x="341.33" y="674.52" width="42.667" height="42.667" fill="none" stroke-width="1.0667"/><rect x="341.33" y="759.85" width="42.667" height="42.667" fill="none" stroke-width="1.0667"/><rect x="160" y="578.52" width="192" height="192" fill="none" stroke-width="1.0667"/><g transform="matrix(.37344 0 0 .37344 4.7333 1097.4)"><path d="m0 0h51.2v51.2h-51.2z" fill="none" stroke-width="1.0667"/></g><g transform="matrix(.36471 0 0 .36471 5.1356 1097.4)"><path d="m0 0h51.2v51.2h-51.2z" fill="none" stroke-width="1.0667"/></g><g transform="matrix(.41585 0 0 .41585 84.325 1055.9)"><g transform="matrix(.062269 0 0 .062269 -28.238 185.29)"><g transform="matrix(38.618 0 0 38.618 14724 -13542)"><g transform="matrix(.71436 0 0 .71436 -400.52 188.34)"><path d="m1293.2-120.67c-181.75 0.2763-511.18 0.13525-699.05 0.13998-2.3216 10.413-3.593 21.251-3.593 32.384v114c207.65 0.73695 494.72 0.38136 706.23 0.3733v-114.37c0-11.18-1.2522-22.07-3.593-32.523zm-458.69 295.56c-78.385-4e-3 -158.85 0.17892-243.95 0.55995v138.63c286.34-0.39317 421.73-0.13827 706.23-0.32664v-137.75c-163.2-0.53005-311.22-1.1113-462.28-1.1199z" opacity="0" stroke-width="1.4932"/></g></g></g></g><path d="m24.549 1119.5c0.66325 0 1.1979-0.5346 1.1979-1.1979v-0.3333c0 0.6632-0.53461 1.1978-1.1979 1.1978h-20.354c-0.66325 0-1.1979-0.5346-1.1979-1.1978v0.3333c0 0.6633 0.53461 1.1979 1.1979 1.1979z" fill="#1a237e" opacity=".2"/></g><g transform="matrix(.044931 0 0 .044931 -3.599 -3.599)" clip-rule="evenodd" fill-rule="evenodd" stroke-linejoin="round" stroke-miterlimit="2"><g fill="#fff"><path d="m538.74 269.87c1.481-3.382 1.157-7.283-0.863-10.373-2.021-3.091-5.464-4.954-9.156-4.954h-14.165c-3.1 0-5.907 1.834-7.153 4.672-12.468 28.396-78.273 178.27-100.25 228.33-1.246 2.838-4.053 4.671-7.154 4.671-3.1 0-5.907-1.833-7.153-4.671-21.977-50.055-87.782-199.93-100.25-228.33-1.246-2.838-4.053-4.672-7.153-4.672h-14.164c-3.693 0-7.135 1.863-9.156 4.954-2.02 3.09-2.344 6.991-0.863 10.373 23.557 53.766 101.87 232.52 117.87 269.03 1.743 3.979 5.674 6.549 10.018 6.549h21.701c4.344 0 8.275-2.57 10.018-6.549 15.999-36.515 94.315-215.27 117.87-269.03z" serif:id="V Shape"/><path d="m408.12 395.31c-1.675 2.901-4.77 4.688-8.119 4.688s-6.444-1.787-8.119-4.688c-16.997-29.44-56.156-97.264-73.153-126.7-1.675-2.901-1.675-6.474 0-9.375s4.77-4.688 8.119-4.688h146.31c3.349 0 6.444 1.787 8.119 4.688s1.675 6.474 0 9.375c-16.997 29.44-56.156 97.264-73.153 126.7z"/></g></g><g display="none" fill="none"><rect transform="rotate(90)" x="7.8232" y="-20.923" width="13.1" height="13.1" display="inline" stroke="#000" stroke-width=".070382"/><rect x="7.2241" y="8.6528" width="14.298" height="11.441" stroke="#5261ff" stroke-linecap="round" stroke-linejoin="round" stroke-width=".06959"/><rect transform="rotate(90)" x="7.2241" y="-20.094" width="14.298" height="11.441" display="inline" stroke="#0f0" stroke-linecap="round" stroke-linejoin="round" stroke-width=".06959"/></g></svg>
