<?xml version="1.0" encoding="UTF-8"?>
<!-- Created with Inkscape (http://www.inkscape.org/) -->
<svg width="28.747" height="28.747" version="1.1" xml:space="preserve" xmlns="http://www.w3.org/2000/svg" xmlns:cc="http://creativecommons.org/ns#" xmlns:dc="http://purl.org/dc/elements/1.1/" xmlns:rdf="http://www.w3.org/1999/02/22-rdf-syntax-ns#" xmlns:xlink="http://www.w3.org/1999/xlink"><title>Twelf Icon Template</title><defs><filter id="filter6206-7" x="-.072" y="-.072" width="1.144" height="1.144" color-interpolation-filters="sRGB"><feGaussianBlur stdDeviation="0.658125"/></filter></defs><metadata><rdf:RDF><cc:Work rdf:about=""><dc:format>image/svg+xml</dc:format><dc:type rdf:resource="http://purl.org/dc/dcmitype/StillImage"/><dc:title>Twelf Icon Template</dc:title><dc:creator><cc:Agent><dc:title>xphnx</dc:title></cc:Agent></dc:creator><cc:license rdf:resource="http://creativecommons.org/licenses/by-nc-sa/3.0/"/></cc:Work><cc:License rdf:about="http://creativecommons.org/licenses/by-nc-sa/3.0/"><cc:permits rdf:resource="http://creativecommons.org/ns#Reproduction"/><cc:permits rdf:resource="http://creativecommons.org/ns#Distribution"/><cc:requires rdf:resource="http://creativecommons.org/ns#Notice"/><cc:requires rdf:resource="http://creativecommons.org/ns#Attribution"/><cc:prohibits rdf:resource="http://creativecommons.org/ns#CommercialUse"/><cc:permits rdf:resource="http://creativecommons.org/ns#DerivativeWorks"/><cc:requires rdf:resource="http://creativecommons.org/ns#ShareAlike"/></cc:License></rdf:RDF></metadata><g transform="translate(0 -1093.8)"><path transform="matrix(1.0781 0 0 1.0641 -.093733 2.7509)" d="m4.4177 1028.2v1.6051h-1.6052v18.192h1.6052v2.1402h18.192v-2.1402h2.1402v-18.192h-2.1402v-1.6051z" fill="#bf360c" filter="url(#filter6206-7)" opacity=".2"/><rect x="2.9987" y="1096.8" width="22.749" height="22.749" rx="1.1973" ry="1.1974" fill="#ffc107"/><g transform="translate(-22.32 1056.5)"><path d="m0 0h51.2v51.2h-51.2z" fill="none" stroke-width="1.0667"/><g transform="matrix(.33601 0 0 .33601 1.5296 73.043)"><path d="m0 0h51.2v51.2h-51.2z" fill="none" stroke-width="1.0667"/></g><g transform="matrix(.37187 0 0 .37187 38.802 63.239)"><path d="m0 0h51.2v51.2h-51.2z" fill="none" stroke-width="1.0667"/><g transform="matrix(2.6891 0 0 2.6891 -82.906 -48.45)"><path d="m0 0h51.2v51.2h-51.2z" fill="none" stroke-width="1.0667"/></g></g></g><path d="m4.1958 1096.8c-0.66332 0-1.1979 0.5346-1.1979 1.1979v0.3334c0-0.6634 0.53459-1.1979 1.1979-1.1979h20.354c0.66332 0 1.1979 0.5345 1.1979 1.1979v-0.3334c0-0.6633-0.5346-1.1979-1.1979-1.1979z" fill="#fff" opacity=".2"/><g fill="none" stroke-width="1.0667"><rect x="128" y="546.52" width="42.667" height="42.667"/><rect x="128" y="631.85" width="42.667" height="42.667"/><rect x="128" y="674.52" width="42.667" height="42.667"/><rect x="128" y="589.19" width="42.667" height="42.667"/><rect x="128" y="717.19" width="42.667" height="42.667"/><rect x="213.33" y="546.52" width="42.667" height="42.667"/><rect x="213.33" y="631.85" width="42.667" height="42.667"/><rect x="213.33" y="674.52" width="42.667" height="42.667"/><rect x="213.33" y="589.19" width="42.667" height="42.667"/><rect x="213.33" y="717.19" width="42.667" height="42.667"/><rect x="298.67" y="546.52" width="42.667" height="42.667"/><rect x="298.67" y="631.85" width="42.667" height="42.667"/><rect x="298.67" y="674.52" width="42.667" height="42.667"/><rect x="298.67" y="589.19" width="42.667" height="42.667"/><rect x="298.67" y="717.19" width="42.667" height="42.667"/><rect x="170.67" y="546.52" width="42.667" height="42.667"/><rect x="170.67" y="631.85" width="42.667" height="42.667"/><rect x="170.67" y="674.52" width="42.667" height="42.667"/><rect x="170.67" y="589.19" width="42.667" height="42.667"/><rect x="170.67" y="717.19" width="42.667" height="42.667"/><rect x="256" y="546.52" width="42.667" height="42.667"/><rect x="256" y="631.85" width="42.667" height="42.667"/><rect x="256" y="674.52" width="42.667" height="42.667"/><rect x="256" y="589.19" width="42.667" height="42.667"/><rect x="256" y="717.19" width="42.667" height="42.667"/><rect x="128" y="759.85" width="42.667" height="42.667"/><rect x="213.33" y="759.85" width="42.667" height="42.667"/><rect x="298.67" y="759.85" width="42.667" height="42.667"/><rect x="170.67" y="759.85" width="42.667" height="42.667"/><rect x="256" y="759.85" width="42.667" height="42.667"/><rect x="341.33" y="589.19" width="42.667" height="42.667"/><rect x="341.33" y="631.85" width="42.667" height="42.667"/><rect x="341.33" y="717.19" width="42.667" height="42.667"/><rect x="341.33" y="546.52" width="42.667" height="42.667"/><rect x="341.33" y="674.52" width="42.667" height="42.667"/><rect x="341.33" y="759.85" width="42.667" height="42.667"/><rect x="160" y="578.52" width="192" height="192"/></g><g transform="matrix(.37344 0 0 .37344 4.7333 1097.4)"><path d="m0 0h51.2v51.2h-51.2z" fill="none" stroke-width="1.0667"/></g><g transform="matrix(.36471 0 0 .36471 5.1356 1097.4)"><path d="m0 0h51.2v51.2h-51.2z" fill="none" stroke-width="1.0667"/></g><g transform="matrix(.41585 0 0 .41585 84.325 1055.9)"><g transform="matrix(.062269 0 0 .062269 -28.238 185.29)"><g transform="matrix(38.618 0 0 38.618 14724 -13542)"><g transform="matrix(.71436 0 0 .71436 -400.52 188.34)"><path d="m1293.2-120.67c-181.75 0.2763-511.18 0.13525-699.05 0.13998-2.3216 10.413-3.593 21.251-3.593 32.384v114c207.65 0.73695 494.72 0.38136 706.23 0.3733v-114.37c0-11.18-1.2522-22.07-3.593-32.523zm-458.69 295.56c-78.385-4e-3 -158.85 0.17892-243.95 0.55995v138.63c286.34-0.39317 421.73-0.13827 706.23-0.32664v-137.75c-163.2-0.53005-311.22-1.1113-462.28-1.1199z" opacity="0" stroke-width="1.4932"/></g></g></g></g><path d="m24.549 1119.5c0.66325 0 1.1979-0.5346 1.1979-1.1979v-0.3333c0 0.6632-0.53461 1.1978-1.1979 1.1978h-20.354c-0.66325 0-1.1979-0.5346-1.1979-1.1978v0.3333c0 0.6633 0.53461 1.1979 1.1979 1.1979z" fill="#bf360c" opacity=".2"/></g><g><path d="m9.4397 7.788c-0.59801 0-1.0764 0.53821-1.0764 0.83722l0.00689 7.7673h2.1949l0.04829-8e-3c0.92774-0.15462 1.6469-0.87381 1.8015-1.8015l8e-3 -0.04824v-2.8067h2.5829c0.07426 0.01407 0.39648 0.08423 0.7407 0.31708 0.38975 0.26366 0.75669 0.6533 0.75669 1.5436 0 0.6361-0.32794 0.94776-0.7307 1.1906-0.37659 0.22706-0.73256 0.30158-0.78088 0.31133l-1.1265-0.0069c-0.1196 0.53821-0.23921 0.77742-0.47841 1.196l1.7262-0.0069 0.05097-9e-3s0.60526-0.10196 1.2191-0.47209c0.61387-0.37013 1.3025-1.105 1.3025-2.2031 0-1.2625-0.64971-2.0988-1.2766-2.5229-0.62687-0.42406-1.2618-0.51384-1.2618-0.51384l-0.04278-0.0063h-3.8636v3.8795c-0.08778 0.4683-0.31679 0.69732-0.78513 0.78508h-0.90307v-6.2331h5.8092c0.09754 0.017532 1.009 0.19198 1.9492 0.80181 0.99311 0.64418 1.9432 1.68 1.9432 3.6304 0 2.0156-0.95322 3.0629-1.9432 3.7051-0.94291 0.61162-1.8583 0.77247-1.9456 0.78688h-4.1721l-1.7004 0.9954v-0.94248h-1.1823v3.0044l3.2033-1.8751h3.9499l0.04322-0.0064s1.2247-0.17777 2.4474-0.97086c1.2227-0.79309 2.4821-2.2873 2.4821-4.697 0-2.3554-1.2626-3.8312-2.4821-4.6222-1.2195-0.79104-2.4397-0.98461-2.4397-0.98461l-0.04702-0.00761z" fill="#fff" stop-color="#000000" stroke-width=".024973"/></g><g display="none" fill="none"><rect transform="rotate(90)" x="7.8232" y="-20.923" width="13.1" height="13.1" display="inline" stroke="#000" stroke-width=".070382"/><rect x="7.2241" y="8.6528" width="14.298" height="11.441" stroke="#5261ff" stroke-linecap="round" stroke-linejoin="round" stroke-width=".06959"/><rect transform="rotate(90)" x="7.2241" y="-20.094" width="14.298" height="11.441" display="inline" stroke="#0f0" stroke-linecap="round" stroke-linejoin="round" stroke-width=".06959"/></g></svg>
