<?xml version="1.0" encoding="UTF-8" standalone="no"?>
<svg
   version="1.1"
   viewBox="0 0 28.747 28.747"
   id="svg50"
   sodipodi:docname="mmrl.svg"
   inkscape:version="1.4.3 (0d15f75042, 2025-12-25)"
   xmlns:inkscape="http://www.inkscape.org/namespaces/inkscape"
   xmlns:sodipodi="http://sodipodi.sourceforge.net/DTD/sodipodi-0.dtd"
   xmlns="http://www.w3.org/2000/svg"
   xmlns:svg="http://www.w3.org/2000/svg">
  <sodipodi:namedview
     id="namedview50"
     pagecolor="#ffffff"
     bordercolor="#000000"
     borderopacity="0.25"
     inkscape:showpageshadow="2"
     inkscape:pageopacity="0.0"
     inkscape:pagecheckerboard="0"
     inkscape:deskcolor="#d1d1d1"
     inkscape:zoom="45.254834"
     inkscape:cx="11.799844"
     inkscape:cy="14.506738"
     inkscape:window-width="1914"
     inkscape:window-height="1037"
     inkscape:window-x="0"
     inkscape:window-y="0"
     inkscape:window-maximized="1"
     inkscape:current-layer="svg50" />
  <defs
     id="defs1">
    <inkscape:perspective
       sodipodi:type="inkscape:persp3d"
       inkscape:vp_x="0 : 14.3735 : 1"
       inkscape:vp_y="0 : 999.99997 : 0"
       inkscape:vp_z="-2.7831937e-15 : 15.151001 : 0"
       inkscape:persp3d-origin="14.3735 : 9.5823333 : 1"
       id="perspective56" />
    <filter
       id="filter6206-7"
       x="-0.072000326"
       y="-0.072000655"
       width="1.1440007"
       height="1.1440013"
       color-interpolation-filters="sRGB">
      <feGaussianBlur
         stdDeviation="0.658125"
         id="feGaussianBlur1" />
    </filter>
  </defs>
  <g
     transform="translate(0 -1093.8)"
     id="g49">
    <path
       transform="matrix(1.0781 0 0 1.0641 -.093733 2.7509)"
       d="m4.4177 1028.2v1.6051h-1.6052v18.192h1.6052v2.1402h18.192v-2.1402h2.1402v-18.192h-2.1402v-1.6051z"
       fill="#263238"
       filter="url(#filter6206-7)"
       opacity=".2"
       id="path1" />
    <rect
       x="2.9987"
       y="1096.8"
       width="22.749"
       height="22.749"
       rx="1.1973"
       ry="1.1974"
       fill="#607d8b"
       id="rect1"
       style="fill:#1d6586;fill-opacity:1" />
    <g
       transform="translate(-22.32 1056.5)"
       id="g7">
      <path
         d="m0 0h51.2v51.2h-51.2z"
         fill="none"
         stroke-width="1.0667"
         id="path2" />
      <g
         transform="matrix(.33601 0 0 .33601 1.5296 73.043)"
         id="g3">
        <path
           d="m0 0h51.2v51.2h-51.2z"
           fill="none"
           stroke-width="1.0667"
           id="path3" />
      </g>
      <g
         transform="matrix(.37187 0 0 .37187 38.802 63.239)"
         id="g6">
        <path
           d="m0 0h51.2v51.2h-51.2z"
           fill="none"
           stroke-width="1.0667"
           id="path4" />
        <g
           transform="matrix(2.6891 0 0 2.6891 -82.906 -48.45)"
           id="g5">
          <path
             d="m0 0h51.2v51.2h-51.2z"
             fill="none"
             stroke-width="1.0667"
             id="path5" />
        </g>
      </g>
    </g>
    <path
       d="m4.1958 1096.8c-0.66332 0-1.1979 0.5346-1.1979 1.1979v0.3334c0-0.6634 0.53459-1.1979 1.1979-1.1979h20.354c0.66332 0 1.1979 0.5345 1.1979 1.1979v-0.3334c0-0.6633-0.5346-1.1979-1.1979-1.1979z"
       fill="#fff"
       opacity=".2"
       id="path7" />
    <rect
       x="128"
       y="546.52"
       width="42.667"
       height="42.667"
       fill="none"
       stroke-width="1.0667"
       id="rect7" />
    <rect
       x="128"
       y="631.85"
       width="42.667"
       height="42.667"
       fill="none"
       stroke-width="1.0667"
       id="rect8" />
    <rect
       x="128"
       y="674.52"
       width="42.667"
       height="42.667"
       fill="none"
       stroke-width="1.0667"
       id="rect9" />
    <rect
       x="128"
       y="589.19"
       width="42.667"
       height="42.667"
       fill="none"
       stroke-width="1.0667"
       id="rect10" />
    <rect
       x="128"
       y="717.19"
       width="42.667"
       height="42.667"
       fill="none"
       stroke-width="1.0667"
       id="rect11" />
    <rect
       x="213.33"
       y="546.52"
       width="42.667"
       height="42.667"
       fill="none"
       stroke-width="1.0667"
       id="rect12" />
    <rect
       x="213.33"
       y="631.85"
       width="42.667"
       height="42.667"
       fill="none"
       stroke-width="1.0667"
       id="rect13" />
    <rect
       x="213.33"
       y="674.52"
       width="42.667"
       height="42.667"
       fill="none"
       stroke-width="1.0667"
       id="rect14" />
    <rect
       x="213.33"
       y="589.19"
       width="42.667"
       height="42.667"
       fill="none"
       stroke-width="1.0667"
       id="rect15" />
    <rect
       x="213.33"
       y="717.19"
       width="42.667"
       height="42.667"
       fill="none"
       stroke-width="1.0667"
       id="rect16" />
    <rect
       x="298.67"
       y="546.52"
       width="42.667"
       height="42.667"
       fill="none"
       stroke-width="1.0667"
       id="rect17" />
    <rect
       x="298.67"
       y="631.85"
       width="42.667"
       height="42.667"
       fill="none"
       stroke-width="1.0667"
       id="rect18" />
    <rect
       x="298.67"
       y="674.52"
       width="42.667"
       height="42.667"
       fill="none"
       stroke-width="1.0667"
       id="rect19" />
    <rect
       x="298.67"
       y="589.19"
       width="42.667"
       height="42.667"
       fill="none"
       stroke-width="1.0667"
       id="rect20" />
    <rect
       x="298.67"
       y="717.19"
       width="42.667"
       height="42.667"
       fill="none"
       stroke-width="1.0667"
       id="rect21" />
    <rect
       x="170.67"
       y="546.52"
       width="42.667"
       height="42.667"
       fill="none"
       stroke-width="1.0667"
       id="rect22" />
    <rect
       x="170.67"
       y="631.85"
       width="42.667"
       height="42.667"
       fill="none"
       stroke-width="1.0667"
       id="rect23" />
    <rect
       x="170.67"
       y="674.52"
       width="42.667"
       height="42.667"
       fill="none"
       stroke-width="1.0667"
       id="rect24" />
    <rect
       x="170.67"
       y="589.19"
       width="42.667"
       height="42.667"
       fill="none"
       stroke-width="1.0667"
       id="rect25" />
    <rect
       x="170.67"
       y="717.19"
       width="42.667"
       height="42.667"
       fill="none"
       stroke-width="1.0667"
       id="rect26" />
    <rect
       x="256"
       y="546.52"
       width="42.667"
       height="42.667"
       fill="none"
       stroke-width="1.0667"
       id="rect27" />
    <rect
       x="256"
       y="631.85"
       width="42.667"
       height="42.667"
       fill="none"
       stroke-width="1.0667"
       id="rect28" />
    <rect
       x="256"
       y="674.52"
       width="42.667"
       height="42.667"
       fill="none"
       stroke-width="1.0667"
       id="rect29" />
    <rect
       x="256"
       y="589.19"
       width="42.667"
       height="42.667"
       fill="none"
       stroke-width="1.0667"
       id="rect30" />
    <rect
       x="256"
       y="717.19"
       width="42.667"
       height="42.667"
       fill="none"
       stroke-width="1.0667"
       id="rect31" />
    <rect
       x="128"
       y="759.85"
       width="42.667"
       height="42.667"
       fill="none"
       stroke-width="1.0667"
       id="rect32" />
    <rect
       x="213.33"
       y="759.85"
       width="42.667"
       height="42.667"
       fill="none"
       stroke-width="1.0667"
       id="rect33" />
    <rect
       x="298.67"
       y="759.85"
       width="42.667"
       height="42.667"
       fill="none"
       stroke-width="1.0667"
       id="rect34" />
    <rect
       x="170.67"
       y="759.85"
       width="42.667"
       height="42.667"
       fill="none"
       stroke-width="1.0667"
       id="rect35" />
    <rect
       x="256"
       y="759.85"
       width="42.667"
       height="42.667"
       fill="none"
       stroke-width="1.0667"
       id="rect36" />
    <rect
       x="341.33"
       y="589.19"
       width="42.667"
       height="42.667"
       fill="none"
       stroke-width="1.0667"
       id="rect37" />
    <rect
       x="341.33"
       y="631.85"
       width="42.667"
       height="42.667"
       fill="none"
       stroke-width="1.0667"
       id="rect38" />
    <rect
       x="341.33"
       y="717.19"
       width="42.667"
       height="42.667"
       fill="none"
       stroke-width="1.0667"
       id="rect39" />
    <rect
       x="341.33"
       y="546.52"
       width="42.667"
       height="42.667"
       fill="none"
       stroke-width="1.0667"
       id="rect40" />
    <rect
       x="341.33"
       y="674.52"
       width="42.667"
       height="42.667"
       fill="none"
       stroke-width="1.0667"
       id="rect41" />
    <rect
       x="341.33"
       y="759.85"
       width="42.667"
       height="42.667"
       fill="none"
       stroke-width="1.0667"
       id="rect42" />
    <rect
       x="160"
       y="578.52"
       width="192"
       height="192"
       fill="none"
       stroke-width="1.0667"
       id="rect43" />
    <g
       transform="matrix(.37344 0 0 .37344 4.7333 1097.4)"
       id="g43">
      <path
         d="m0 0h51.2v51.2h-51.2z"
         fill="none"
         stroke-width="1.0667"
         id="path43" />
    </g>
    <g
       transform="matrix(.36471 0 0 .36471 5.1356 1097.4)"
       id="g44">
      <path
         d="m0 0h51.2v51.2h-51.2z"
         fill="none"
         stroke-width="1.0667"
         id="path44" />
    </g>
    <g
       transform="matrix(.41585 0 0 .41585 84.325 1055.9)"
       id="g48">
      <g
         transform="matrix(.062269 0 0 .062269 -28.238 185.29)"
         id="g47">
        <g
           transform="matrix(38.618 0 0 38.618 14724 -13542)"
           id="g46">
          <g
             transform="matrix(.71436 0 0 .71436 -400.52 188.34)"
             id="g45">
            <path
               d="m1293.2-120.67c-181.75 0.2763-511.18 0.13525-699.05 0.13998-2.3216 10.413-3.593 21.251-3.593 32.384v114c207.65 0.73695 494.72 0.38136 706.23 0.3733v-114.37c0-11.18-1.2522-22.07-3.593-32.523zm-458.69 295.56c-78.385-4e-3 -158.85 0.17892-243.95 0.55995v138.63c286.34-0.39317 421.73-0.13827 706.23-0.32664v-137.75c-163.2-0.53005-311.22-1.1113-462.28-1.1199z"
               opacity="0"
               stroke-width="1.4932"
               id="path45" />
          </g>
        </g>
      </g>
    </g>
    <path
       d="m24.549 1119.5c0.66325 0 1.1979-0.5346 1.1979-1.1979v-0.3333c0 0.6632-0.53461 1.1978-1.1979 1.1978h-20.354c-0.66325 0-1.1979-0.5346-1.1979-1.1978v0.3333c0 0.6633 0.53461 1.1979 1.1979 1.1979z"
       fill="#263238"
       opacity=".2"
       id="path48" />
  </g>
  <g
     id="g85"
     transform="translate(2.0005e-4,-0.03584222)">
    <path
       id="path21"
       style="baseline-shift:baseline;display:inline;overflow:visible;vector-effect:none;fill:#ffffff;stroke-linecap:round;stroke-linejoin:round;enable-background:accumulate;stop-color:#000000;stop-opacity:1;opacity:1"
       d="M 14.372847 7.8092797 A 0.60933591 0.60933591 0 0 0 14.068159 7.891311 L 8.8962843 10.877639 A 0.60933591 0.60933591 0 0 0 8.5915968 11.404983 L 8.5915968 17.379592 A 0.60927498 0.60927498 0 0 0 8.8962843 17.904983 L 14.068159 20.893264 A 0.60933591 0.60933591 0 0 0 14.677534 20.893264 L 19.851362 17.904983 A 0.60927498 0.60927498 0 0 0 20.15605 17.377639 L 20.15605 11.404983 A 0.60933591 0.60933591 0 0 0 19.851362 10.877639 L 14.677534 7.891311 A 0.60933591 0.60933591 0 0 0 14.372847 7.8092797 z M 14.372847 9.1217797 L 15.765425 9.9264672 L 11.810347 12.207717 L 10.419722 11.404983 L 14.372847 9.1217797 z M 16.935347 10.600295 L 18.327925 11.404983 L 14.372847 13.688186 L 12.982222 12.885452 L 16.935347 10.600295 z M 9.8103468 12.45967 L 13.763472 14.744827 L 13.763472 19.30928 L 9.8103468 17.026077 L 9.8103468 12.45967 z M 18.9373 12.45967 L 18.9373 17.026077 L 14.982222 19.30928 L 14.982222 14.744827 L 18.9373 12.45967 z " />
  </g>
</svg>
