<?xml version="1.0" encoding="UTF-8"?>
<!-- Created with Inkscape (http://www.inkscape.org/) -->
<svg width="28.747" height="28.747" version="1.1" xmlns="http://www.w3.org/2000/svg" xmlns:cc="http://creativecommons.org/ns#" xmlns:dc="http://purl.org/dc/elements/1.1/" xmlns:rdf="http://www.w3.org/1999/02/22-rdf-syntax-ns#" xmlns:xlink="http://www.w3.org/1999/xlink">
 <title>Twelf Icon Template</title>
 <defs>
  <filter id="filter6206-7" x="-.072" y="-.072" width="1.144" height="1.144" color-interpolation-filters="sRGB">
   <feGaussianBlur stdDeviation="0.658125"/>
  </filter>
 </defs>
 <metadata>
  <rdf:RDF>
   <cc:Work rdf:about="">
    <dc:format>image/svg+xml</dc:format>
    <dc:type rdf:resource="http://purl.org/dc/dcmitype/StillImage"/>
    <dc:title>Twelf Icon Template</dc:title>
    <dc:creator>
     <cc:Agent>
      <dc:title>xphnx</dc:title>
     </cc:Agent>
    </dc:creator>
    <cc:license rdf:resource="http://creativecommons.org/licenses/by-nc-sa/3.0/"/>
   </cc:Work>
   <cc:License rdf:about="http://creativecommons.org/licenses/by-nc-sa/3.0/">
    <cc:permits rdf:resource="http://creativecommons.org/ns#Reproduction"/>
    <cc:permits rdf:resource="http://creativecommons.org/ns#Distribution"/>
    <cc:requires rdf:resource="http://creativecommons.org/ns#Notice"/>
    <cc:requires rdf:resource="http://creativecommons.org/ns#Attribution"/>
    <cc:prohibits rdf:resource="http://creativecommons.org/ns#CommercialUse"/>
    <cc:permits rdf:resource="http://creativecommons.org/ns#DerivativeWorks"/>
    <cc:requires rdf:resource="http://creativecommons.org/ns#ShareAlike"/>
   </cc:License>
  </rdf:RDF>
 </metadata>
 <g transform="translate(0 -1093.8)">
  <path transform="matrix(1.0781 0 0 1.0641 -.093733 2.7509)" d="m4.4177 1028.2v1.6051h-1.6052v18.192h1.6052v2.1402h18.192v-2.1402h2.1402v-18.192h-2.1402v-1.6051z" fill="#1a237e" filter="url(#filter6206-7)" opacity=".2"/>
  <rect x="2.9987" y="1096.8" width="22.749" height="22.749" rx="1.1973" ry="1.1974" fill="#9c27b0"/>
  <g transform="translate(-22.32 1056.5)">
   <path d="m0 0h51.2v51.2h-51.2z" fill="none" stroke-width="1.0667"/>
   <g transform="matrix(.33601 0 0 .33601 1.5296 73.043)">
    <path d="m0 0h51.2v51.2h-51.2z" fill="none" stroke-width="1.0667"/>
   </g>
   <g transform="matrix(.37187 0 0 .37187 38.802 63.239)">
    <path d="m0 0h51.2v51.2h-51.2z" fill="none" stroke-width="1.0667"/>
    <g transform="matrix(2.6891 0 0 2.6891 -82.906 -48.45)">
     <path d="m0 0h51.2v51.2h-51.2z" fill="none" stroke-width="1.0667"/>
    </g>
   </g>
  </g>
  <path d="m4.1958 1096.8c-0.66332 0-1.1979 0.5346-1.1979 1.1979v0.3334c0-0.6634 0.53459-1.1979 1.1979-1.1979h20.354c0.66332 0 1.1979 0.5345 1.1979 1.1979v-0.3334c0-0.6633-0.5346-1.1979-1.1979-1.1979z" fill="#fff" opacity=".2"/>
  <g fill="none" stroke-width="1.0667">
   <rect x="128" y="546.52" width="42.667" height="42.667"/>
   <rect x="128" y="631.85" width="42.667" height="42.667"/>
   <rect x="128" y="674.52" width="42.667" height="42.667"/>
   <rect x="128" y="589.19" width="42.667" height="42.667"/>
   <rect x="128" y="717.19" width="42.667" height="42.667"/>
   <rect x="213.33" y="546.52" width="42.667" height="42.667"/>
   <rect x="213.33" y="631.85" width="42.667" height="42.667"/>
   <rect x="213.33" y="674.52" width="42.667" height="42.667"/>
   <rect x="213.33" y="589.19" width="42.667" height="42.667"/>
   <rect x="213.33" y="717.19" width="42.667" height="42.667"/>
   <rect x="298.67" y="546.52" width="42.667" height="42.667"/>
   <rect x="298.67" y="631.85" width="42.667" height="42.667"/>
   <rect x="298.67" y="674.52" width="42.667" height="42.667"/>
   <rect x="298.67" y="589.19" width="42.667" height="42.667"/>
   <rect x="298.67" y="717.19" width="42.667" height="42.667"/>
   <rect x="170.67" y="546.52" width="42.667" height="42.667"/>
   <rect x="170.67" y="631.85" width="42.667" height="42.667"/>
   <rect x="170.67" y="674.52" width="42.667" height="42.667"/>
   <rect x="170.67" y="589.19" width="42.667" height="42.667"/>
   <rect x="170.67" y="717.19" width="42.667" height="42.667"/>
   <rect x="256" y="546.52" width="42.667" height="42.667"/>
   <rect x="256" y="631.85" width="42.667" height="42.667"/>
   <rect x="256" y="674.52" width="42.667" height="42.667"/>
   <rect x="256" y="589.19" width="42.667" height="42.667"/>
   <rect x="256" y="717.19" width="42.667" height="42.667"/>
   <rect x="128" y="759.85" width="42.667" height="42.667"/>
   <rect x="213.33" y="759.85" width="42.667" height="42.667"/>
   <rect x="298.67" y="759.85" width="42.667" height="42.667"/>
   <rect x="170.67" y="759.85" width="42.667" height="42.667"/>
   <rect x="256" y="759.85" width="42.667" height="42.667"/>
   <rect x="341.33" y="589.19" width="42.667" height="42.667"/>
   <rect x="341.33" y="631.85" width="42.667" height="42.667"/>
   <rect x="341.33" y="717.19" width="42.667" height="42.667"/>
   <rect x="341.33" y="546.52" width="42.667" height="42.667"/>
   <rect x="341.33" y="674.52" width="42.667" height="42.667"/>
   <rect x="341.33" y="759.85" width="42.667" height="42.667"/>
   <rect x="160" y="578.52" width="192" height="192"/>
  </g>
  <g transform="matrix(.37344 0 0 .37344 4.7333 1097.4)">
   <path d="m0 0h51.2v51.2h-51.2z" fill="none" stroke-width="1.0667"/>
  </g>
  <g transform="matrix(.36471 0 0 .36471 5.1356 1097.4)">
   <path d="m0 0h51.2v51.2h-51.2z" fill="none" stroke-width="1.0667"/>
  </g>
  <g transform="matrix(.41585 0 0 .41585 84.325 1055.9)">
   <g transform="matrix(.062269 0 0 .062269 -28.238 185.29)">
    <g transform="matrix(38.618 0 0 38.618 14724 -13542)">
     <g transform="matrix(.71436 0 0 .71436 -400.52 188.34)">
      <path d="m1293.2-120.67c-181.75 0.2763-511.18 0.13525-699.05 0.13998-2.3216 10.413-3.593 21.251-3.593 32.384v114c207.65 0.73695 494.72 0.38136 706.23 0.3733v-114.37c0-11.18-1.2522-22.07-3.593-32.523zm-458.69 295.56c-78.385-4e-3 -158.85 0.17892-243.95 0.55995v138.63c286.34-0.39317 421.73-0.13827 706.23-0.32664v-137.75c-163.2-0.53005-311.22-1.1113-462.28-1.1199z" opacity="0" stroke-width="1.4932"/>
     </g>
    </g>
   </g>
  </g>
  <path d="m24.549 1119.5c0.66325 0 1.1979-0.5346 1.1979-1.1979v-0.3333c0 0.6632-0.53461 1.1978-1.1979 1.1978h-20.354c-0.66325 0-1.1979-0.5346-1.1979-1.1978v0.3333c0 0.6633 0.53461 1.1979 1.1979 1.1979z" fill="#1a237e" opacity=".2"/>
 </g>
 <g>
  <path d="m13.663 20.953q-1.2575-0.11448-2.3323-0.67226-1.075-0.55794-1.8597-1.4504-0.78495-0.89244-1.2312-2.0361-0.44622-1.1438-0.44622-2.4174 0-2.5596 1.6793-4.4418 1.6792-1.8823 4.2063-2.1421v1.1102q-2.0629 0.30852-3.4212 1.8576-1.3582 1.5493-1.3582 3.6161 0 2.0629 1.35 3.6102 1.3502 1.5472 3.4131 1.8596zm0.71448-3.2851-3.2786-3.2747 0.72925-0.72925 2.0389 2.0389v-4.5921h1.017v4.5921l2.0429-2.0389 0.72925 0.72925zm0.71448 3.2851v-1.1063q0.73916-0.09743 1.4234-0.37965 0.68427-0.28222 1.2649-0.74923l0.81158 0.81142q-0.75848 0.59172-1.6467 0.97104-0.88822 0.37932-1.8533 0.45272zm2.7046-10.909q-0.61315-0.43453-1.2893-0.73104-0.67615-0.29651-1.4153-0.41017v-1.1102q0.96503 0.10977 1.8471 0.48097 0.88189 0.3712 1.6529 0.95902zm1.7209 8.4781-0.79534-0.77894q0.46327-0.59708 0.73542-1.2813t0.37348-1.4234h1.1225q-0.10977 0.96503-0.4709 1.8533-0.36114 0.88822-0.96519 1.6305zm0.30966-4.8152q-0.10133-0.73916-0.37153-1.4316-0.2702-0.69239-0.73347-1.2732l0.8564-0.7627q0.58782 0.75848 0.93272 1.6386t0.44232 1.8289z" fill="#fff" stroke-width=".016238"/>
 </g>
 <g display="none" fill="none">
  <rect transform="rotate(90)" x="7.8232" y="-20.923" width="13.1" height="13.1" display="inline" stroke="#000" stroke-width=".070382"/>
  <rect x="7.2241" y="8.6528" width="14.298" height="11.441" stroke="#5261ff" stroke-linecap="round" stroke-linejoin="round" stroke-width=".06959"/>
  <rect transform="rotate(90)" x="7.2241" y="-20.094" width="14.298" height="11.441" display="inline" stroke="#0f0" stroke-linecap="round" stroke-linejoin="round" stroke-width=".06959"/>
 </g>
</svg>
