<?xml version="1.0" encoding="UTF-8"?>
<svg version="1.1" viewBox="0 0 28.747 28.747" xml:space="preserve" xmlns="http://www.w3.org/2000/svg"><defs><filter id="filter6206-7" x="-.072" y="-.072" width="1.144" height="1.144" color-interpolation-filters="sRGB"><feGaussianBlur stdDeviation="0.658125"/></filter></defs><g transform="translate(0 -1093.8)"><path transform="matrix(1.0781 0 0 1.0641 -.093733 2.7509)" d="m4.4177 1028.2v1.6051h-1.6052v18.192h1.6052v2.1402h18.192v-2.1402h2.1402v-18.192h-2.1402v-1.6051z" fill="#232323" filter="url(#filter6206-7)" opacity=".2"/><rect x="2.9987" y="1096.8" width="22.749" height="22.749" rx="1.1973" ry="1.1974" fill="#232323"/><g transform="translate(-22.32 1056.5)"><path d="m0 0h51.2v51.2h-51.2z" fill="none" stroke-width="1.0667"/><g transform="matrix(.33601 0 0 .33601 1.5296 73.043)"><path d="m0 0h51.2v51.2h-51.2z" fill="none" stroke-width="1.0667"/></g><g transform="matrix(.37187 0 0 .37187 38.802 63.239)"><path d="m0 0h51.2v51.2h-51.2z" fill="none" stroke-width="1.0667"/><g transform="matrix(2.6891 0 0 2.6891 -82.906 -48.45)"><path d="m0 0h51.2v51.2h-51.2z" fill="none" stroke-width="1.0667"/></g></g></g><path d="m4.1958 1096.8c-0.66332 0-1.1979 0.5346-1.1979 1.1979v0.3334c0-0.6634 0.53459-1.1979 1.1979-1.1979h20.354c0.66332 0 1.1979 0.5345 1.1979 1.1979v-0.3334c0-0.6633-0.5346-1.1979-1.1979-1.1979z" fill="#fff" opacity=".2"/><rect x="128" y="546.52" width="42.667" height="42.667" fill="none" stroke-width="1.0667"/><rect x="128" y="631.85" width="42.667" height="42.667" fill="none" stroke-width="1.0667"/><rect x="128" y="674.52" width="42.667" height="42.667" fill="none" stroke-width="1.0667"/><rect x="128" y="589.19" width="42.667" height="42.667" fill="none" stroke-width="1.0667"/><rect x="128" y="717.19" width="42.667" height="42.667" fill="none" stroke-width="1.0667"/><rect x="213.33" y="546.52" width="42.667" height="42.667" fill="none" stroke-width="1.0667"/><rect x="213.33" y="631.85" width="42.667" height="42.667" fill="none" stroke-width="1.0667"/><rect x="213.33" y="674.52" width="42.667" height="42.667" fill="none" stroke-width="1.0667"/><rect x="213.33" y="589.19" width="42.667" height="42.667" fill="none" stroke-width="1.0667"/><rect x="213.33" y="717.19" width="42.667" height="42.667" fill="none" stroke-width="1.0667"/><rect x="298.67" y="546.52" width="42.667" height="42.667" fill="none" stroke-width="1.0667"/><rect x="298.67" y="631.85" width="42.667" height="42.667" fill="none" stroke-width="1.0667"/><rect x="298.67" y="674.52" width="42.667" height="42.667" fill="none" stroke-width="1.0667"/><rect x="298.67" y="589.19" width="42.667" height="42.667" fill="none" stroke-width="1.0667"/><rect x="298.67" y="717.19" width="42.667" height="42.667" fill="none" stroke-width="1.0667"/><rect x="170.67" y="546.52" width="42.667" height="42.667" fill="none" stroke-width="1.0667"/><rect x="170.67" y="631.85" width="42.667" height="42.667" fill="none" stroke-width="1.0667"/><rect x="170.67" y="674.52" width="42.667" height="42.667" fill="none" stroke-width="1.0667"/><rect x="170.67" y="589.19" width="42.667" height="42.667" fill="none" stroke-width="1.0667"/><rect x="170.67" y="717.19" width="42.667" height="42.667" fill="none" stroke-width="1.0667"/><rect x="256" y="546.52" width="42.667" height="42.667" fill="none" stroke-width="1.0667"/><rect x="256" y="631.85" width="42.667" height="42.667" fill="none" stroke-width="1.0667"/><rect x="256" y="674.52" width="42.667" height="42.667" fill="none" stroke-width="1.0667"/><rect x="256" y="589.19" width="42.667" height="42.667" fill="none" stroke-width="1.0667"/><rect x="256" y="717.19" width="42.667" height="42.667" fill="none" stroke-width="1.0667"/><rect x="128" y="759.85" width="42.667" height="42.667" fill="none" stroke-width="1.0667"/><rect x="213.33" y="759.85" width="42.667" height="42.667" fill="none" stroke-width="1.0667"/><rect x="298.67" y="759.85" width="42.667" height="42.667" fill="none" stroke-width="1.0667"/><rect x="170.67" y="759.85" width="42.667" height="42.667" fill="none" stroke-width="1.0667"/><rect x="256" y="759.85" width="42.667" height="42.667" fill="none" stroke-width="1.0667"/><rect x="341.33" y="589.19" width="42.667" height="42.667" fill="none" stroke-width="1.0667"/><rect x="341.33" y="631.85" width="42.667" height="42.667" fill="none" stroke-width="1.0667"/><rect x="341.33" y="717.19" width="42.667" height="42.667" fill="none" stroke-width="1.0667"/><rect x="341.33" y="546.52" width="42.667" height="42.667" fill="none" stroke-width="1.0667"/><rect x="341.33" y="674.52" width="42.667" height="42.667" fill="none" stroke-width="1.0667"/><rect x="341.33" y="759.85" width="42.667" height="42.667" fill="none" stroke-width="1.0667"/><rect x="160" y="578.52" width="192" height="192" fill="none" stroke-width="1.0667"/><g transform="matrix(.37344 0 0 .37344 4.7333 1097.4)"><path d="m0 0h51.2v51.2h-51.2z" fill="none" stroke-width="1.0667"/></g><g transform="matrix(.36471 0 0 .36471 5.1356 1097.4)"><path d="m0 0h51.2v51.2h-51.2z" fill="none" stroke-width="1.0667"/></g><g transform="matrix(.41585 0 0 .41585 84.325 1055.9)"><g transform="matrix(.062269 0 0 .062269 -28.238 185.29)"><g transform="matrix(38.618 0 0 38.618 14724 -13542)"><g transform="matrix(.71436 0 0 .71436 -400.52 188.34)"><path d="m1293.2-120.67c-181.75 0.2763-511.18 0.13525-699.05 0.13998-2.3216 10.413-3.593 21.251-3.593 32.384v114c207.65 0.73695 494.72 0.38136 706.23 0.3733v-114.37c0-11.18-1.2522-22.07-3.593-32.523zm-458.69 295.56c-78.385-4e-3 -158.85 0.17892-243.95 0.55995v138.63c286.34-0.39317 421.73-0.13827 706.23-0.32664v-137.75c-163.2-0.53005-311.22-1.1113-462.28-1.1199z" opacity="0" stroke-width="1.4932"/></g></g></g></g><path d="m24.549 1119.5c0.66325 0 1.1979-0.5346 1.1979-1.1979v-0.3333c0 0.6632-0.53461 1.1978-1.1979 1.1978h-20.354c-0.66325 0-1.1979-0.5346-1.1979-1.1978v0.3333c0 0.6633 0.53461 1.1979 1.1979 1.1979z" fill="#232323" opacity=".2"/></g><path transform="matrix(1.0145 0 0 1.0145 -.23425 -.1408)" d="m7.9395 19.088c0.30759-0.32104 0.63278-0.62522 0.97363-0.9107 0.29469-0.24682 0.60107-0.47967 0.91779-0.69751 0.20542-0.16271 0.39749-0.34226 0.57367-0.53626 0.43611-0.48022 0.76974-1.0424 1.1151-1.5916 0.59443-0.94531 1.233-1.8647 1.9496-2.7211 0.78962-0.94372 1.6728-1.8091 2.6324-2.5793 0.24077-0.56727 0.70715-1.0351 1.2737-1.2776 0.68754-0.29431 1.5125-0.24499 2.1601 0.12913 0.12284-0.037021 0.2495-0.061321 0.37732-0.072384 0.10677-0.00924 0.21434-0.00926 0.32112-4.31e-5 -0.09365 0.076241-0.17603 0.16631-0.24363 0.26637-0.07359 0.10893-0.12963 0.2297-0.1653 0.35623-0.04353 0.33587-0.14634 0.66398-0.30226 0.96463-0.17967 0.34645-0.42995 0.65608-0.73103 0.90438-0.04262 0.45281-0.12526 0.90185-0.24663 1.3402-0.09022 0.3258-0.20503 0.65182-0.40967 0.9209-0.10504 0.13811-0.23254 0.2591-0.37598 0.35675 0.11735 0.14637 0.22365 0.3016 0.31769 0.46393 0.09283 0.16026 0.17372 0.32744 0.24176 0.49969 0.33033 0.3205 0.65032 0.65166 0.95929 0.9928 0.56515 0.62398 1.0934 1.2813 1.5812 1.9675l-1.3788-0.54828c0.13716 0.19736 0.2753 0.39404 0.4144 0.59004 0.30529 0.43016 0.61524 0.85702 0.92978 1.2805-0.69625-0.08139-1.3726-0.32869-1.9571-0.71562-0.55252-0.36575-1.0224-0.85554-1.365-1.4227 0.0868 0.3139 0.17732 0.62678 0.27153 0.93854 0.13292 0.43986 0.27318 0.8775 0.42072 1.3127-0.36459-0.31316-0.68044-0.68294-0.93276-1.092-0.29087-0.47158-0.49694-0.99528-0.60544-1.5386-0.0016 0.3708-0.0024 0.74161-0.0025 1.1124-9.3e-5 0.4262 8.07e-4 0.85239 0.0027 1.2786-0.21889-0.23602-0.40993-0.49784-0.56789-0.77832-0.1455-0.25836-0.26294-0.5325-0.34959-0.81607l-0.01582 1.4074c-0.20902-0.28102-0.3918-0.58156-0.54517-0.89642-0.19802-0.40655-0.34692-0.837-0.44241-1.279l-0.02695 1.3319-1.1621-1.097c-0.28485 0.16021-0.58186 0.29879-0.88763 0.41414-0.36185 0.1365-0.73598 0.24046-1.1164 0.3102l-0.40008 0.38306c-0.17904 0.22409-0.34799 0.45624-0.50616 0.69551-0.26167 0.39582-0.49381 0.81114-0.69388 1.2414l-0.017593-0.7191c-0.10531 0.11772-0.21231 0.23393-0.32094 0.34859-0.13697 0.14457-0.27654 0.28668-0.41862 0.42622 0.053606-0.13526 0.1032-0.27212 0.1487-0.41032 0.045259-0.13748 0.086461-0.2763 0.12354-0.41621-0.15485 0.19269-0.34486 0.35705-0.55785 0.48253-0.15269 0.08996-0.3171 0.16002-0.48775 0.20786 0.035574-0.0569 0.070772-0.11404 0.10559-0.1714 0.041073-0.06767 0.081617-0.13566 0.12163-0.20396-0.10795 0.05771-0.21919 0.10926-0.33301 0.15433-0.11024 0.04365-0.22289 0.0812-0.33726 0.11244 0.047883-0.12586 0.10802-0.24705 0.17929-0.3613 0.11365-0.1822 0.25572-0.34664 0.41949-0.48554-0.10429 0.03885-0.21111 0.07091-0.31956 0.0959-0.10176 0.02345-0.20496 0.04068-0.30882 0.05157z" fill="#fff" style="-inkscape-stroke:none"/><g display="none" fill="none"><rect transform="rotate(90)" x="7.8232" y="-20.923" width="13.1" height="13.1" display="inline" stroke="#000" stroke-width=".070382"/><rect x="7.2241" y="8.6528" width="14.298" height="11.441" stroke="#5261ff" stroke-linecap="round" stroke-linejoin="round" stroke-width=".06959"/><rect transform="rotate(90)" x="7.2241" y="-20.094" width="14.298" height="11.441" display="inline" stroke="#0f0" stroke-linecap="round" stroke-linejoin="round" stroke-width=".06959"/></g></svg>
