<?xml version="1.0" encoding="UTF-8"?>
<svg version="1.1" viewBox="0 0 28.747 28.747" xml:space="preserve" xmlns="http://www.w3.org/2000/svg"><defs><filter id="filter6206-7" x="-.072" y="-.072001" width="1.144" height="1.144" color-interpolation-filters="sRGB"><feGaussianBlur stdDeviation="0.658125"/></filter></defs><g transform="translate(0 -1093.8)"><path transform="matrix(1.0781 0 0 1.0641 -.093733 2.7509)" d="m4.4177 1028.2v1.6051h-1.6052v18.192h1.6052v2.1402h18.192v-2.1402h2.1402v-18.192h-2.1402v-1.6051z" fill="#232323" filter="url(#filter6206-7)" opacity=".2"/><rect x="2.9987" y="1096.8" width="22.749" height="22.749" rx="1.1973" ry="1.1974" fill="#232323"/><g transform="translate(-22.32 1056.5)"><path d="m0 0h51.2v51.2h-51.2z" fill="none" stroke-width="1.0667"/><g transform="matrix(.33601 0 0 .33601 1.5296 73.043)"><path d="m0 0h51.2v51.2h-51.2z" fill="none" stroke-width="1.0667"/></g><g transform="matrix(.37187 0 0 .37187 38.802 63.239)"><path d="m0 0h51.2v51.2h-51.2z" fill="none" stroke-width="1.0667"/><g transform="matrix(2.6891 0 0 2.6891 -82.906 -48.45)"><path d="m0 0h51.2v51.2h-51.2z" fill="none" stroke-width="1.0667"/></g></g></g><path d="m4.1958 1096.8c-0.66332 0-1.1979 0.5346-1.1979 1.1979v0.3334c0-0.6634 0.53459-1.1979 1.1979-1.1979h20.354c0.66332 0 1.1979 0.5345 1.1979 1.1979v-0.3334c0-0.6633-0.5346-1.1979-1.1979-1.1979z" fill="#fff" opacity=".2"/><g fill="none" stroke-width="1.0667"><rect x="128" y="546.52" width="42.667" height="42.667"/><rect x="128" y="631.85" width="42.667" height="42.667"/><rect x="128" y="674.52" width="42.667" height="42.667"/><rect x="128" y="589.19" width="42.667" height="42.667"/><rect x="128" y="717.19" width="42.667" height="42.667"/><rect x="213.33" y="546.52" width="42.667" height="42.667"/><rect x="213.33" y="631.85" width="42.667" height="42.667"/><rect x="213.33" y="674.52" width="42.667" height="42.667"/><rect x="213.33" y="589.19" width="42.667" height="42.667"/><rect x="213.33" y="717.19" width="42.667" height="42.667"/><rect x="298.67" y="546.52" width="42.667" height="42.667"/><rect x="298.67" y="631.85" width="42.667" height="42.667"/><rect x="298.67" y="674.52" width="42.667" height="42.667"/><rect x="298.67" y="589.19" width="42.667" height="42.667"/><rect x="298.67" y="717.19" width="42.667" height="42.667"/><rect x="170.67" y="546.52" width="42.667" height="42.667"/><rect x="170.67" y="631.85" width="42.667" height="42.667"/><rect x="170.67" y="674.52" width="42.667" height="42.667"/><rect x="170.67" y="589.19" width="42.667" height="42.667"/><rect x="170.67" y="717.19" width="42.667" height="42.667"/><rect x="256" y="546.52" width="42.667" height="42.667"/><rect x="256" y="631.85" width="42.667" height="42.667"/><rect x="256" y="674.52" width="42.667" height="42.667"/><rect x="256" y="589.19" width="42.667" height="42.667"/><rect x="256" y="717.19" width="42.667" height="42.667"/><rect x="128" y="759.85" width="42.667" height="42.667"/><rect x="213.33" y="759.85" width="42.667" height="42.667"/><rect x="298.67" y="759.85" width="42.667" height="42.667"/><rect x="170.67" y="759.85" width="42.667" height="42.667"/><rect x="256" y="759.85" width="42.667" height="42.667"/><rect x="341.33" y="589.19" width="42.667" height="42.667"/><rect x="341.33" y="631.85" width="42.667" height="42.667"/><rect x="341.33" y="717.19" width="42.667" height="42.667"/><rect x="341.33" y="546.52" width="42.667" height="42.667"/><rect x="341.33" y="674.52" width="42.667" height="42.667"/><rect x="341.33" y="759.85" width="42.667" height="42.667"/><rect x="160" y="578.52" width="192" height="192"/></g><g transform="matrix(.37344 0 0 .37344 4.7333 1097.4)"><path d="m0 0h51.2v51.2h-51.2z" fill="none" stroke-width="1.0667"/></g><g transform="matrix(.36471 0 0 .36471 5.1356 1097.4)"><path d="m0 0h51.2v51.2h-51.2z" fill="none" stroke-width="1.0667"/></g><g transform="matrix(.41585 0 0 .41585 84.325 1055.9)"><g transform="matrix(.062269 0 0 .062269 -28.238 185.29)"><g transform="matrix(38.618 0 0 38.618 14724 -13542)"><g transform="matrix(.71436 0 0 .71436 -400.52 188.34)"><path d="m1293.2-120.67c-181.75 0.2763-511.18 0.13525-699.05 0.13998-2.3216 10.413-3.593 21.251-3.593 32.384v114c207.65 0.73695 494.72 0.38136 706.23 0.3733v-114.37c0-11.18-1.2522-22.07-3.593-32.523zm-458.69 295.56c-78.385-4e-3 -158.85 0.17892-243.95 0.55995v138.63c286.34-0.39317 421.73-0.13827 706.23-0.32664v-137.75c-163.2-0.53005-311.22-1.1113-462.28-1.1199z" opacity="0" stroke-width="1.4932"/></g></g></g></g><path d="m24.549 1119.5c0.66325 0 1.1979-0.5346 1.1979-1.1979v-0.3333c0 0.6632-0.53461 1.1978-1.1979 1.1978h-20.354c-0.66325 0-1.1979-0.5346-1.1979-1.1978v0.3333c0 0.6633 0.53461 1.1979 1.1979 1.1979z" fill="#232323" opacity=".2"/></g><g transform="translate(57.48 76.63)"><g transform="matrix(.01886 0 0 .01886 -49.107 -62.717)" fill="none" stroke="#fff" stroke-width="42.407"><path d="m523.48-170.54v6e-3c-1.3169 67.606-51.61 170.55-166.37 191.61-11.973 2.1975-24.29 3.3418-36.844 3.3418h-99.795c-1.2734 0-2.5231 0.11807-3.7383 0.33984-8.5231 1.5587-15.346 8.3453-16.738 17.172l-31.299 198.48-0.0273 0.12305-19.623 124.4c-1.6077 10.226 6.296 19.472 16.648 19.475h108.32c10.209 2.5e-4 18.902-7.426 20.496-17.51l28.535-180.97c1.5987-10.088 10.288-17.523 20.496-17.523h63.783c100.43 0 185.67-73.268 201.23-172.55 11.051-70.483-24.415-134.6-85.078-166.4z"/><path d="m131.46-335.58c-10.213 6e-4 -18.907 7.4326-20.496 17.521l-84.998 538.99c-1.6153 10.23 6.2908 19.484 16.648 19.486h126.05l31.299-198.48 34.064-216c1.5932-10.085 10.286-17.512 20.496-17.512h180.6c44.562 0 78.455 15.852 88.334 21.028 1.7386-90.395-72.849-165.04-175.41-165.04z"/></g><g transform="matrix(.01886 0 0 .01886 -27.363 -69.106)" display="none" fill="none" stroke="#fff" stroke-width=".53022"><path d="m523.48-170.54v6e-3c-1.3169 67.606-51.61 170.55-166.37 191.61-11.973 2.1975-24.29 3.3418-36.844 3.3418h-99.795c-1.2734 0-2.5231 0.11807-3.7383 0.33984-8.5231 1.5587-15.346 8.3453-16.738 17.172l-31.299 198.48-0.0273 0.12305-19.623 124.4c-1.6077 10.226 6.296 19.472 16.648 19.475h108.32c10.209 2.5e-4 18.902-7.426 20.496-17.51l28.535-180.97c1.5987-10.088 10.288-17.523 20.496-17.523h63.783c100.43 0 185.67-73.268 201.23-172.55 11.051-70.483-24.415-134.6-85.078-166.4z"/><path d="m131.46-335.58c-10.213 6e-4 -18.907 7.4326-20.496 17.521l-84.998 538.99c-1.6153 10.23 6.2908 19.484 16.648 19.486h126.05l31.299-198.48 34.064-216c1.5932-10.085 10.286-17.512 20.496-17.512h180.6c44.562 0 78.455 15.852 88.334 21.028 1.7386-90.395-72.849-165.04-175.41-165.04z"/></g><path transform="translate(-57.48,-76.63)" d="m12.074 14.71 0.64245-4.0738s0.06154-0.17522 0.12872-0.23334c0.06944-0.06007 0.25783-0.09694 0.25783-0.09694h3.4061s0.45784 0.0037 0.8904 0.11014c0.45458 0.1119 0.77558 0.28644 0.77558 0.28644s0.0098 1.0813-0.73902 2.099c-1.0205 1.3871-2.3984 1.515-2.3984 1.515l-0.69488 0.06303h-1.8821s-0.18707 0.03625-0.25617 0.0957c-0.06786 0.05838-0.13052 0.23469-0.13052 0.23469z" fill="#fff"/></g><g display="none" fill="none"><rect transform="rotate(90)" x="7.8232" y="-20.923" width="13.1" height="13.1" display="inline" stroke="#000" stroke-width=".070382"/><rect x="7.2241" y="8.6528" width="14.298" height="11.441" stroke="#5261ff" stroke-linecap="round" stroke-linejoin="round" stroke-width=".06959"/><rect transform="rotate(90)" x="7.2241" y="-20.094" width="14.298" height="11.441" display="inline" stroke="#0f0" stroke-linecap="round" stroke-linejoin="round" stroke-width=".06959"/></g></svg>
